<svg xmlns="http://www.w3.org/2000/svg" version="1.1" xmlns:xlink="http://www.w3.org/1999/xlink" xmlns:svgjs="http://svgjs.dev/svgjs" viewBox="0 0 800 800"><g><circle r="36.5" cx="0" cy="0" fill="hsl(250, 85%, 37%)"></circle><circle r="36.5" cx="0" cy="73" fill="hsl(261, 85%, 37%)"></circle><circle r="36.5" cx="0" cy="146" fill="hsl(272, 85%, 37%)"></circle><circle r="36.5" cx="0" cy="219" fill="hsl(291, 85%, 37%)"></circle><circle r="36.5" cx="0" cy="292" fill="hsl(299, 85%, 37%)"></circle><circle r="36.5" cx="0" cy="365" fill="hsl(310, 85%, 37%)"></circle><circle r="36.5" cx="0" cy="438" fill="hsl(313, 85%, 37%)"></circle><circle r="36.5" cx="0" cy="511" fill="hsl(315, 85%, 37%)"></circle><circle r="36.5" cx="0" cy="584" fill="hsl(314, 85%, 37%)"></circle><circle r="36.5" cx="0" cy="657" fill="hsl(308, 85%, 37%)"></circle><circle r="36.5" cx="0" cy="730" fill="hsl(305, 85%, 37%)"></circle><circle r="36.5" cx="0" cy="803" fill="hsl(301, 85%, 37%)"></circle><circle r="36.5" cx="0" cy="876" fill="hsl(301, 85%, 37%)"></circle><circle r="36.5" cx="73" cy="0" fill="hsl(250, 85%, 37%)"></circle><circle r="36.5" cx="73" cy="73" fill="hsl(261, 85%, 37%)"></circle><circle r="36.5" cx="73" cy="146" fill="hsl(272, 85%, 37%)"></circle><circle r="36.5" cx="73" cy="219" fill="hsl(291, 85%, 37%)"></circle><circle r="36.5" cx="73" cy="292" fill="hsl(299, 85%, 37%)"></circle><circle r="36.5" cx="73" cy="365" fill="hsl(310, 85%, 37%)"></circle><circle r="36.5" cx="73" cy="438" fill="hsl(313, 85%, 37%)"></circle><circle r="36.5" cx="73" cy="511" fill="hsl(314, 85%, 37%)"></circle><circle r="36.5" cx="73" cy="584" fill="hsl(313, 85%, 37%)"></circle><circle r="36.5" cx="73" cy="657" fill="hsl(307, 85%, 37%)"></circle><circle r="36.5" cx="73" cy="730" fill="hsl(303, 85%, 37%)"></circle><circle r="36.5" cx="73" cy="803" fill="hsl(298, 85%, 37%)"></circle><circle r="36.5" cx="73" cy="876" fill="hsl(298, 85%, 37%)"></circle><circle r="36.5" cx="146" cy="0" fill="hsl(250, 85%, 37%)"></circle><circle r="36.5" cx="146" cy="73" fill="hsl(261, 85%, 37%)"></circle><circle r="36.5" cx="146" cy="146" fill="hsl(271, 85%, 37%)"></circle><circle r="36.5" cx="146" cy="219" fill="hsl(290, 85%, 37%)"></circle><circle r="36.5" cx="146" cy="292" fill="hsl(298, 85%, 37%)"></circle><circle r="36.5" cx="146" cy="365" fill="hsl(309, 85%, 37%)"></circle><circle r="36.5" cx="146" cy="438" fill="hsl(311, 85%, 37%)"></circle><circle r="36.5" cx="146" cy="511" fill="hsl(312, 85%, 37%)"></circle><circle r="36.5" cx="146" cy="584" fill="hsl(310, 85%, 37%)"></circle><circle r="36.5" cx="146" cy="657" fill="hsl(303, 85%, 37%)"></circle><circle r="36.5" cx="146" cy="730" fill="hsl(299, 85%, 37%)"></circle><circle r="36.5" cx="146" cy="803" fill="hsl(294, 85%, 37%)"></circle><circle r="36.5" cx="146" cy="876" fill="hsl(294, 85%, 37%)"></circle><circle r="36.5" cx="219" cy="0" fill="hsl(250, 85%, 37%)"></circle><circle r="36.5" cx="219" cy="73" fill="hsl(260, 85%, 37%)"></circle><circle r="36.5" cx="219" cy="146" fill="hsl(270, 85%, 37%)"></circle><circle r="36.5" cx="219" cy="219" fill="hsl(288, 85%, 37%)"></circle><circle r="36.5" cx="219" cy="292" fill="hsl(295, 85%, 37%)"></circle><circle r="36.5" cx="219" cy="365" fill="hsl(304, 85%, 37%)"></circle><circle r="36.5" cx="219" cy="438" fill="hsl(306, 85%, 37%)"></circle><circle r="36.5" cx="219" cy="511" fill="hsl(304, 85%, 37%)"></circle><circle r="36.5" cx="219" cy="584" fill="hsl(300, 85%, 37%)"></circle><circle r="36.5" cx="219" cy="657" fill="hsl(291, 85%, 37%)"></circle><circle r="36.5" cx="219" cy="730" fill="hsl(285, 85%, 37%)"></circle><circle r="36.5" cx="219" cy="803" fill="hsl(280, 85%, 37%)"></circle><circle r="36.5" cx="219" cy="876" fill="hsl(280, 85%, 37%)"></circle><circle r="36.5" cx="292" cy="0" fill="hsl(250, 85%, 37%)"></circle><circle r="36.5" cx="292" cy="73" fill="hsl(260, 85%, 37%)"></circle><circle r="36.5" cx="292" cy="146" fill="hsl(269, 85%, 37%)"></circle><circle r="36.5" cx="292" cy="219" fill="hsl(286, 85%, 37%)"></circle><circle r="36.5" cx="292" cy="292" fill="hsl(292, 85%, 37%)"></circle><circle r="36.5" cx="292" cy="365" fill="hsl(300, 85%, 37%)"></circle><circle r="36.5" cx="292" cy="438" fill="hsl(301, 85%, 37%)"></circle><circle r="36.5" cx="292" cy="511" fill="hsl(297, 85%, 37%)"></circle><circle r="36.5" cx="292" cy="584" fill="hsl(293, 85%, 37%)"></circle><circle r="36.5" cx="292" cy="657" fill="hsl(282, 85%, 37%)"></circle><circle r="36.5" cx="292" cy="730" fill="hsl(276, 85%, 37%)"></circle><circle r="36.5" cx="292" cy="803" fill="hsl(270, 85%, 37%)"></circle><circle r="36.5" cx="292" cy="876" fill="hsl(270, 85%, 37%)"></circle><circle r="36.5" cx="365" cy="0" fill="hsl(250, 85%, 37%)"></circle><circle r="36.5" cx="365" cy="73" fill="hsl(259, 85%, 37%)"></circle><circle r="36.5" cx="365" cy="146" fill="hsl(267, 85%, 37%)"></circle><circle r="36.5" cx="365" cy="219" fill="hsl(280, 85%, 37%)"></circle><circle r="36.5" cx="365" cy="292" fill="hsl(285, 85%, 37%)"></circle><circle r="36.5" cx="365" cy="365" fill="hsl(289, 85%, 37%)"></circle><circle r="36.5" cx="365" cy="438" fill="hsl(288, 85%, 37%)"></circle><circle r="36.5" cx="365" cy="511" fill="hsl(281, 85%, 37%)"></circle><circle r="36.5" cx="365" cy="584" fill="hsl(275, 85%, 37%)"></circle><circle r="36.5" cx="365" cy="657" fill="hsl(261, 85%, 37%)"></circle><circle r="36.5" cx="365" cy="730" fill="hsl(254, 85%, 37%)"></circle><circle r="36.5" cx="365" cy="803" fill="hsl(247, 85%, 37%)"></circle><circle r="36.5" cx="365" cy="876" fill="hsl(247, 85%, 37%)"></circle><circle r="36.5" cx="438" cy="0" fill="hsl(251, 85%, 37%)"></circle><circle r="36.5" cx="438" cy="73" fill="hsl(258, 85%, 37%)"></circle><circle r="36.5" cx="438" cy="146" fill="hsl(265, 85%, 37%)"></circle><circle r="36.5" cx="438" cy="219" fill="hsl(277, 85%, 37%)"></circle><circle r="36.5" cx="438" cy="292" fill="hsl(281, 85%, 37%)"></circle><circle r="36.5" cx="438" cy="365" fill="hsl(282, 85%, 37%)"></circle><circle r="36.5" cx="438" cy="438" fill="hsl(281, 85%, 37%)"></circle><circle r="36.5" cx="438" cy="511" fill="hsl(272, 85%, 37%)"></circle><circle r="36.5" cx="438" cy="584" fill="hsl(265, 85%, 37%)"></circle><circle r="36.5" cx="438" cy="657" fill="hsl(250, 85%, 37%)"></circle><circle r="36.5" cx="438" cy="730" fill="hsl(242, 85%, 37%)"></circle><circle r="36.5" cx="438" cy="803" fill="hsl(234, 85%, 37%)"></circle><circle r="36.5" cx="438" cy="876" fill="hsl(234, 85%, 37%)"></circle><circle r="36.5" cx="511" cy="0" fill="hsl(253, 85%, 37%)"></circle><circle r="36.5" cx="511" cy="73" fill="hsl(258, 85%, 37%)"></circle><circle r="36.5" cx="511" cy="146" fill="hsl(263, 85%, 37%)"></circle><circle r="36.5" cx="511" cy="219" fill="hsl(269, 85%, 37%)"></circle><circle r="36.5" cx="511" cy="292" fill="hsl(270, 85%, 37%)"></circle><circle r="36.5" cx="511" cy="365" fill="hsl(267, 85%, 37%)"></circle><circle r="36.5" cx="511" cy="438" fill="hsl(263, 85%, 37%)"></circle><circle r="36.5" cx="511" cy="511" fill="hsl(251, 85%, 37%)"></circle><circle r="36.5" cx="511" cy="584" fill="hsl(243, 85%, 37%)"></circle><circle r="36.5" cx="511" cy="657" fill="hsl(226, 85%, 37%)"></circle><circle r="36.5" cx="511" cy="730" fill="hsl(217, 85%, 37%)"></circle><circle r="36.5" cx="511" cy="803" fill="hsl(210, 85%, 37%)"></circle><circle r="36.5" cx="511" cy="876" fill="hsl(210, 85%, 37%)"></circle><circle r="36.5" cx="584" cy="0" fill="hsl(255, 85%, 37%)"></circle><circle r="36.5" cx="584" cy="73" fill="hsl(259, 85%, 37%)"></circle><circle r="36.5" cx="584" cy="146" fill="hsl(262, 85%, 37%)"></circle><circle r="36.5" cx="584" cy="219" fill="hsl(265, 85%, 37%)"></circle><circle r="36.5" cx="584" cy="292" fill="hsl(265, 85%, 37%)"></circle><circle r="36.5" cx="584" cy="365" fill="hsl(259, 85%, 37%)"></circle><circle r="36.5" cx="584" cy="438" fill="hsl(254, 85%, 37%)"></circle><circle r="36.5" cx="584" cy="511" fill="hsl(240, 85%, 37%)"></circle><circle r="36.5" cx="584" cy="584" fill="hsl(231, 85%, 37%)"></circle><circle r="36.5" cx="584" cy="657" fill="hsl(214, 85%, 37%)"></circle><circle r="36.5" cx="584" cy="730" fill="hsl(206, 85%, 37%)"></circle><circle r="36.5" cx="584" cy="803" fill="hsl(198, 85%, 37%)"></circle><circle r="36.5" cx="584" cy="876" fill="hsl(198, 85%, 37%)"></circle><circle r="36.5" cx="657" cy="0" fill="hsl(261, 85%, 37%)"></circle><circle r="36.5" cx="657" cy="73" fill="hsl(262, 85%, 37%)"></circle><circle r="36.5" cx="657" cy="146" fill="hsl(262, 85%, 37%)"></circle><circle r="36.5" cx="657" cy="219" fill="hsl(259, 85%, 37%)"></circle><circle r="36.5" cx="657" cy="292" fill="hsl(255, 85%, 37%)"></circle><circle r="36.5" cx="657" cy="365" fill="hsl(244, 85%, 37%)"></circle><circle r="36.5" cx="657" cy="438" fill="hsl(237, 85%, 37%)"></circle><circle r="36.5" cx="657" cy="511" fill="hsl(220, 85%, 37%)"></circle><circle r="36.5" cx="657" cy="584" fill="hsl(211, 85%, 37%)"></circle><circle r="36.5" cx="657" cy="657" fill="hsl(193, 85%, 37%)"></circle><circle r="36.5" cx="657" cy="730" fill="hsl(186, 85%, 37%)"></circle><circle r="36.5" cx="657" cy="803" fill="hsl(179, 85%, 37%)"></circle><circle r="36.5" cx="657" cy="876" fill="hsl(179, 85%, 37%)"></circle><circle r="36.5" cx="730" cy="0" fill="hsl(265, 85%, 37%)"></circle><circle r="36.5" cx="730" cy="73" fill="hsl(264, 85%, 37%)"></circle><circle r="36.5" cx="730" cy="146" fill="hsl(263, 85%, 37%)"></circle><circle r="36.5" cx="730" cy="219" fill="hsl(256, 85%, 37%)"></circle><circle r="36.5" cx="730" cy="292" fill="hsl(251, 85%, 37%)"></circle><circle r="36.5" cx="730" cy="365" fill="hsl(237, 85%, 37%)"></circle><circle r="36.5" cx="730" cy="438" fill="hsl(229, 85%, 37%)"></circle><circle r="36.5" cx="730" cy="511" fill="hsl(211, 85%, 37%)"></circle><circle r="36.5" cx="730" cy="584" fill="hsl(202, 85%, 37%)"></circle><circle r="36.5" cx="730" cy="657" fill="hsl(185, 85%, 37%)"></circle><circle r="36.5" cx="730" cy="730" fill="hsl(178, 85%, 37%)"></circle><circle r="36.5" cx="730" cy="803" fill="hsl(172, 85%, 37%)"></circle><circle r="36.5" cx="730" cy="876" fill="hsl(172, 85%, 37%)"></circle><circle r="36.5" cx="803" cy="0" fill="hsl(269, 85%, 37%)"></circle><circle r="36.5" cx="803" cy="73" fill="hsl(267, 85%, 37%)"></circle><circle r="36.5" cx="803" cy="146" fill="hsl(264, 85%, 37%)"></circle><circle r="36.5" cx="803" cy="219" fill="hsl(254, 85%, 37%)"></circle><circle r="36.5" cx="803" cy="292" fill="hsl(248, 85%, 37%)"></circle><circle r="36.5" cx="803" cy="365" fill="hsl(232, 85%, 37%)"></circle><circle r="36.5" cx="803" cy="438" fill="hsl(222, 85%, 37%)"></circle><circle r="36.5" cx="803" cy="511" fill="hsl(203, 85%, 37%)"></circle><circle r="36.5" cx="803" cy="584" fill="hsl(194, 85%, 37%)"></circle><circle r="36.5" cx="803" cy="657" fill="hsl(178, 85%, 37%)"></circle><circle r="36.5" cx="803" cy="730" fill="hsl(172, 85%, 37%)"></circle><circle r="36.5" cx="803" cy="803" fill="hsl(167, 85%, 37%)"></circle><circle r="36.5" cx="803" cy="876" fill="hsl(167, 85%, 37%)"></circle><circle r="36.5" cx="876" cy="0" fill="hsl(269, 85%, 37%)"></circle><circle r="36.5" cx="876" cy="73" fill="hsl(267, 85%, 37%)"></circle><circle r="36.5" cx="876" cy="146" fill="hsl(264, 85%, 37%)"></circle><circle r="36.5" cx="876" cy="219" fill="hsl(254, 85%, 37%)"></circle><circle r="36.5" cx="876" cy="292" fill="hsl(248, 85%, 37%)"></circle><circle r="36.5" cx="876" cy="365" fill="hsl(232, 85%, 37%)"></circle><circle r="36.5" cx="876" cy="438" fill="hsl(222, 85%, 37%)"></circle><circle r="36.5" cx="876" cy="511" fill="hsl(203, 85%, 37%)"></circle><circle r="36.5" cx="876" cy="584" fill="hsl(194, 85%, 37%)"></circle><circle r="36.5" cx="876" cy="657" fill="hsl(178, 85%, 37%)"></circle><circle r="36.5" cx="876" cy="730" fill="hsl(172, 85%, 37%)"></circle><circle r="36.5" cx="876" cy="803" fill="hsl(167, 85%, 37%)"></circle><circle r="36.5" cx="876" cy="876" fill="hsl(167, 85%, 37%)"></circle><circle r="36.5" cx="949" cy="0" fill="hsl(269, 85%, 37%)"></circle><circle r="36.5" cx="949" cy="73" fill="hsl(267, 85%, 37%)"></circle><circle r="36.5" cx="949" cy="146" fill="hsl(264, 85%, 37%)"></circle><circle r="36.5" cx="949" cy="219" fill="hsl(254, 85%, 37%)"></circle><circle r="36.5" cx="949" cy="292" fill="hsl(248, 85%, 37%)"></circle><circle r="36.5" cx="949" cy="365" fill="hsl(232, 85%, 37%)"></circle><circle r="36.5" cx="949" cy="438" fill="hsl(222, 85%, 37%)"></circle><circle r="36.5" cx="949" cy="511" fill="hsl(203, 85%, 37%)"></circle><circle r="36.5" cx="949" cy="584" fill="hsl(194, 85%, 37%)"></circle><circle r="36.5" cx="949" cy="657" fill="hsl(178, 85%, 37%)"></circle><circle r="36.5" cx="949" cy="730" fill="hsl(172, 85%, 37%)"></circle><circle r="36.5" cx="949" cy="803" fill="hsl(167, 85%, 37%)"></circle><circle r="36.5" cx="949" cy="876" fill="hsl(167, 85%, 37%)"></circle></g><g transform="matrix(1,0,0,1,-36.5,0)"><circle r="36.5" cx="0" cy="36.5" fill="hsl(250, 85%, 37%)"></circle><circle r="36.5" cx="0" cy="109.5" fill="hsl(272, 85%, 37%)"></circle><circle r="36.5" cx="0" cy="182.5" fill="hsl(282, 85%, 37%)"></circle><circle r="36.5" cx="0" cy="255.5" fill="hsl(299, 85%, 37%)"></circle><circle r="36.5" cx="0" cy="328.5" fill="hsl(305, 85%, 37%)"></circle><circle r="36.5" cx="0" cy="401.5" fill="hsl(313, 85%, 37%)"></circle><circle r="36.5" cx="0" cy="474.5" fill="hsl(315, 85%, 37%)"></circle><circle r="36.5" cx="0" cy="547.5" fill="hsl(315, 85%, 37%)"></circle><circle r="36.5" cx="0" cy="620.5" fill="hsl(312, 85%, 37%)"></circle><circle r="36.5" cx="0" cy="693.5" fill="hsl(308, 85%, 37%)"></circle><circle r="36.5" cx="0" cy="766.5" fill="hsl(301, 85%, 37%)"></circle><circle r="36.5" cx="0" cy="839.5" fill="hsl(301, 85%, 37%)"></circle><circle r="36.5" cx="73" cy="36.5" fill="hsl(250, 85%, 37%)"></circle><circle r="36.5" cx="73" cy="109.5" fill="hsl(272, 85%, 37%)"></circle><circle r="36.5" cx="73" cy="182.5" fill="hsl(282, 85%, 37%)"></circle><circle r="36.5" cx="73" cy="255.5" fill="hsl(299, 85%, 37%)"></circle><circle r="36.5" cx="73" cy="328.5" fill="hsl(305, 85%, 37%)"></circle><circle r="36.5" cx="73" cy="401.5" fill="hsl(313, 85%, 37%)"></circle><circle r="36.5" cx="73" cy="474.5" fill="hsl(314, 85%, 37%)"></circle><circle r="36.5" cx="73" cy="547.5" fill="hsl(314, 85%, 37%)"></circle><circle r="36.5" cx="73" cy="620.5" fill="hsl(310, 85%, 37%)"></circle><circle r="36.5" cx="73" cy="693.5" fill="hsl(307, 85%, 37%)"></circle><circle r="36.5" cx="73" cy="766.5" fill="hsl(298, 85%, 37%)"></circle><circle r="36.5" cx="73" cy="839.5" fill="hsl(298, 85%, 37%)"></circle><circle r="36.5" cx="146" cy="36.5" fill="hsl(250, 85%, 37%)"></circle><circle r="36.5" cx="146" cy="109.5" fill="hsl(271, 85%, 37%)"></circle><circle r="36.5" cx="146" cy="182.5" fill="hsl(281, 85%, 37%)"></circle><circle r="36.5" cx="146" cy="255.5" fill="hsl(298, 85%, 37%)"></circle><circle r="36.5" cx="146" cy="328.5" fill="hsl(304, 85%, 37%)"></circle><circle r="36.5" cx="146" cy="401.5" fill="hsl(311, 85%, 37%)"></circle><circle r="36.5" cx="146" cy="474.5" fill="hsl(313, 85%, 37%)"></circle><circle r="36.5" cx="146" cy="547.5" fill="hsl(312, 85%, 37%)"></circle><circle r="36.5" cx="146" cy="620.5" fill="hsl(307, 85%, 37%)"></circle><circle r="36.5" cx="146" cy="693.5" fill="hsl(303, 85%, 37%)"></circle><circle r="36.5" cx="146" cy="766.5" fill="hsl(294, 85%, 37%)"></circle><circle r="36.5" cx="146" cy="839.5" fill="hsl(294, 85%, 37%)"></circle><circle r="36.5" cx="219" cy="36.5" fill="hsl(250, 85%, 37%)"></circle><circle r="36.5" cx="219" cy="109.5" fill="hsl(270, 85%, 37%)"></circle><circle r="36.5" cx="219" cy="182.5" fill="hsl(279, 85%, 37%)"></circle><circle r="36.5" cx="219" cy="255.5" fill="hsl(295, 85%, 37%)"></circle><circle r="36.5" cx="219" cy="328.5" fill="hsl(300, 85%, 37%)"></circle><circle r="36.5" cx="219" cy="401.5" fill="hsl(306, 85%, 37%)"></circle><circle r="36.5" cx="219" cy="474.5" fill="hsl(306, 85%, 37%)"></circle><circle r="36.5" cx="219" cy="547.5" fill="hsl(304, 85%, 37%)"></circle><circle r="36.5" cx="219" cy="620.5" fill="hsl(296, 85%, 37%)"></circle><circle r="36.5" cx="219" cy="693.5" fill="hsl(291, 85%, 37%)"></circle><circle r="36.5" cx="219" cy="766.5" fill="hsl(280, 85%, 37%)"></circle><circle r="36.5" cx="219" cy="839.5" fill="hsl(280, 85%, 37%)"></circle><circle r="36.5" cx="292" cy="36.5" fill="hsl(250, 85%, 37%)"></circle><circle r="36.5" cx="292" cy="109.5" fill="hsl(269, 85%, 37%)"></circle><circle r="36.5" cx="292" cy="182.5" fill="hsl(278, 85%, 37%)"></circle><circle r="36.5" cx="292" cy="255.5" fill="hsl(292, 85%, 37%)"></circle><circle r="36.5" cx="292" cy="328.5" fill="hsl(297, 85%, 37%)"></circle><circle r="36.5" cx="292" cy="401.5" fill="hsl(301, 85%, 37%)"></circle><circle r="36.5" cx="292" cy="474.5" fill="hsl(300, 85%, 37%)"></circle><circle r="36.5" cx="292" cy="547.5" fill="hsl(297, 85%, 37%)"></circle><circle r="36.5" cx="292" cy="620.5" fill="hsl(288, 85%, 37%)"></circle><circle r="36.5" cx="292" cy="693.5" fill="hsl(282, 85%, 37%)"></circle><circle r="36.5" cx="292" cy="766.5" fill="hsl(270, 85%, 37%)"></circle><circle r="36.5" cx="292" cy="839.5" fill="hsl(270, 85%, 37%)"></circle><circle r="36.5" cx="365" cy="36.5" fill="hsl(250, 85%, 37%)"></circle><circle r="36.5" cx="365" cy="109.5" fill="hsl(267, 85%, 37%)"></circle><circle r="36.5" cx="365" cy="182.5" fill="hsl(274, 85%, 37%)"></circle><circle r="36.5" cx="365" cy="255.5" fill="hsl(285, 85%, 37%)"></circle><circle r="36.5" cx="365" cy="328.5" fill="hsl(288, 85%, 37%)"></circle><circle r="36.5" cx="365" cy="401.5" fill="hsl(288, 85%, 37%)"></circle><circle r="36.5" cx="365" cy="474.5" fill="hsl(286, 85%, 37%)"></circle><circle r="36.5" cx="365" cy="547.5" fill="hsl(281, 85%, 37%)"></circle><circle r="36.5" cx="365" cy="620.5" fill="hsl(269, 85%, 37%)"></circle><circle r="36.5" cx="365" cy="693.5" fill="hsl(261, 85%, 37%)"></circle><circle r="36.5" cx="365" cy="766.5" fill="hsl(247, 85%, 37%)"></circle><circle r="36.5" cx="365" cy="839.5" fill="hsl(247, 85%, 37%)"></circle><circle r="36.5" cx="438" cy="36.5" fill="hsl(251, 85%, 37%)"></circle><circle r="36.5" cx="438" cy="109.5" fill="hsl(265, 85%, 37%)"></circle><circle r="36.5" cx="438" cy="182.5" fill="hsl(272, 85%, 37%)"></circle><circle r="36.5" cx="438" cy="255.5" fill="hsl(281, 85%, 37%)"></circle><circle r="36.5" cx="438" cy="328.5" fill="hsl(282, 85%, 37%)"></circle><circle r="36.5" cx="438" cy="401.5" fill="hsl(281, 85%, 37%)"></circle><circle r="36.5" cx="438" cy="474.5" fill="hsl(277, 85%, 37%)"></circle><circle r="36.5" cx="438" cy="547.5" fill="hsl(272, 85%, 37%)"></circle><circle r="36.5" cx="438" cy="620.5" fill="hsl(258, 85%, 37%)"></circle><circle r="36.5" cx="438" cy="693.5" fill="hsl(250, 85%, 37%)"></circle><circle r="36.5" cx="438" cy="766.5" fill="hsl(234, 85%, 37%)"></circle><circle r="36.5" cx="438" cy="839.5" fill="hsl(234, 85%, 37%)"></circle><circle r="36.5" cx="511" cy="36.5" fill="hsl(253, 85%, 37%)"></circle><circle r="36.5" cx="511" cy="109.5" fill="hsl(263, 85%, 37%)"></circle><circle r="36.5" cx="511" cy="182.5" fill="hsl(267, 85%, 37%)"></circle><circle r="36.5" cx="511" cy="255.5" fill="hsl(270, 85%, 37%)"></circle><circle r="36.5" cx="511" cy="328.5" fill="hsl(270, 85%, 37%)"></circle><circle r="36.5" cx="511" cy="401.5" fill="hsl(263, 85%, 37%)"></circle><circle r="36.5" cx="511" cy="474.5" fill="hsl(257, 85%, 37%)"></circle><circle r="36.5" cx="511" cy="547.5" fill="hsl(251, 85%, 37%)"></circle><circle r="36.5" cx="511" cy="620.5" fill="hsl(234, 85%, 37%)"></circle><circle r="36.5" cx="511" cy="693.5" fill="hsl(226, 85%, 37%)"></circle><circle r="36.5" cx="511" cy="766.5" fill="hsl(210, 85%, 37%)"></circle><circle r="36.5" cx="511" cy="839.5" fill="hsl(210, 85%, 37%)"></circle><circle r="36.5" cx="584" cy="36.5" fill="hsl(255, 85%, 37%)"></circle><circle r="36.5" cx="584" cy="109.5" fill="hsl(262, 85%, 37%)"></circle><circle r="36.5" cx="584" cy="182.5" fill="hsl(264, 85%, 37%)"></circle><circle r="36.5" cx="584" cy="255.5" fill="hsl(265, 85%, 37%)"></circle><circle r="36.5" cx="584" cy="328.5" fill="hsl(263, 85%, 37%)"></circle><circle r="36.5" cx="584" cy="401.5" fill="hsl(254, 85%, 37%)"></circle><circle r="36.5" cx="584" cy="474.5" fill="hsl(247, 85%, 37%)"></circle><circle r="36.5" cx="584" cy="547.5" fill="hsl(240, 85%, 37%)"></circle><circle r="36.5" cx="584" cy="620.5" fill="hsl(223, 85%, 37%)"></circle><circle r="36.5" cx="584" cy="693.5" fill="hsl(214, 85%, 37%)"></circle><circle r="36.5" cx="584" cy="766.5" fill="hsl(198, 85%, 37%)"></circle><circle r="36.5" cx="584" cy="839.5" fill="hsl(198, 85%, 37%)"></circle><circle r="36.5" cx="657" cy="36.5" fill="hsl(261, 85%, 37%)"></circle><circle r="36.5" cx="657" cy="109.5" fill="hsl(262, 85%, 37%)"></circle><circle r="36.5" cx="657" cy="182.5" fill="hsl(261, 85%, 37%)"></circle><circle r="36.5" cx="657" cy="255.5" fill="hsl(255, 85%, 37%)"></circle><circle r="36.5" cx="657" cy="328.5" fill="hsl(250, 85%, 37%)"></circle><circle r="36.5" cx="657" cy="401.5" fill="hsl(237, 85%, 37%)"></circle><circle r="36.5" cx="657" cy="474.5" fill="hsl(228, 85%, 37%)"></circle><circle r="36.5" cx="657" cy="547.5" fill="hsl(220, 85%, 37%)"></circle><circle r="36.5" cx="657" cy="620.5" fill="hsl(202, 85%, 37%)"></circle><circle r="36.5" cx="657" cy="693.5" fill="hsl(193, 85%, 37%)"></circle><circle r="36.5" cx="657" cy="766.5" fill="hsl(179, 85%, 37%)"></circle><circle r="36.5" cx="657" cy="839.5" fill="hsl(179, 85%, 37%)"></circle><circle r="36.5" cx="730" cy="36.5" fill="hsl(265, 85%, 37%)"></circle><circle r="36.5" cx="730" cy="109.5" fill="hsl(263, 85%, 37%)"></circle><circle r="36.5" cx="730" cy="182.5" fill="hsl(260, 85%, 37%)"></circle><circle r="36.5" cx="730" cy="255.5" fill="hsl(251, 85%, 37%)"></circle><circle r="36.5" cx="730" cy="328.5" fill="hsl(245, 85%, 37%)"></circle><circle r="36.5" cx="730" cy="401.5" fill="hsl(229, 85%, 37%)"></circle><circle r="36.5" cx="730" cy="474.5" fill="hsl(220, 85%, 37%)"></circle><circle r="36.5" cx="730" cy="547.5" fill="hsl(211, 85%, 37%)"></circle><circle r="36.5" cx="730" cy="620.5" fill="hsl(193, 85%, 37%)"></circle><circle r="36.5" cx="730" cy="693.5" fill="hsl(185, 85%, 37%)"></circle><circle r="36.5" cx="730" cy="766.5" fill="hsl(172, 85%, 37%)"></circle><circle r="36.5" cx="730" cy="839.5" fill="hsl(172, 85%, 37%)"></circle><circle r="36.5" cx="803" cy="36.5" fill="hsl(269, 85%, 37%)"></circle><circle r="36.5" cx="803" cy="109.5" fill="hsl(264, 85%, 37%)"></circle><circle r="36.5" cx="803" cy="182.5" fill="hsl(260, 85%, 37%)"></circle><circle r="36.5" cx="803" cy="255.5" fill="hsl(248, 85%, 37%)"></circle><circle r="36.5" cx="803" cy="328.5" fill="hsl(240, 85%, 37%)"></circle><circle r="36.5" cx="803" cy="401.5" fill="hsl(222, 85%, 37%)"></circle><circle r="36.5" cx="803" cy="474.5" fill="hsl(213, 85%, 37%)"></circle><circle r="36.5" cx="803" cy="547.5" fill="hsl(203, 85%, 37%)"></circle><circle r="36.5" cx="803" cy="620.5" fill="hsl(186, 85%, 37%)"></circle><circle r="36.5" cx="803" cy="693.5" fill="hsl(178, 85%, 37%)"></circle><circle r="36.5" cx="803" cy="766.5" fill="hsl(167, 85%, 37%)"></circle><circle r="36.5" cx="803" cy="839.5" fill="hsl(167, 85%, 37%)"></circle><circle r="36.5" cx="876" cy="36.5" fill="hsl(269, 85%, 37%)"></circle><circle r="36.5" cx="876" cy="109.5" fill="hsl(264, 85%, 37%)"></circle><circle r="36.5" cx="876" cy="182.5" fill="hsl(260, 85%, 37%)"></circle><circle r="36.5" cx="876" cy="255.5" fill="hsl(248, 85%, 37%)"></circle><circle r="36.5" cx="876" cy="328.5" fill="hsl(240, 85%, 37%)"></circle><circle r="36.5" cx="876" cy="401.5" fill="hsl(222, 85%, 37%)"></circle><circle r="36.5" cx="876" cy="474.5" fill="hsl(213, 85%, 37%)"></circle><circle r="36.5" cx="876" cy="547.5" fill="hsl(203, 85%, 37%)"></circle><circle r="36.5" cx="876" cy="620.5" fill="hsl(186, 85%, 37%)"></circle><circle r="36.5" cx="876" cy="693.5" fill="hsl(178, 85%, 37%)"></circle><circle r="36.5" cx="876" cy="766.5" fill="hsl(167, 85%, 37%)"></circle><circle r="36.5" cx="876" cy="839.5" fill="hsl(167, 85%, 37%)"></circle><circle r="36.5" cx="949" cy="36.5" fill="hsl(269, 85%, 37%)"></circle><circle r="36.5" cx="949" cy="109.5" fill="hsl(264, 85%, 37%)"></circle><circle r="36.5" cx="949" cy="182.5" fill="hsl(260, 85%, 37%)"></circle><circle r="36.5" cx="949" cy="255.5" fill="hsl(248, 85%, 37%)"></circle><circle r="36.5" cx="949" cy="328.5" fill="hsl(240, 85%, 37%)"></circle><circle r="36.5" cx="949" cy="401.5" fill="hsl(222, 85%, 37%)"></circle><circle r="36.5" cx="949" cy="474.5" fill="hsl(213, 85%, 37%)"></circle><circle r="36.5" cx="949" cy="547.5" fill="hsl(203, 85%, 37%)"></circle><circle r="36.5" cx="949" cy="620.5" fill="hsl(186, 85%, 37%)"></circle><circle r="36.5" cx="949" cy="693.5" fill="hsl(178, 85%, 37%)"></circle><circle r="36.5" cx="949" cy="766.5" fill="hsl(167, 85%, 37%)"></circle><circle r="36.5" cx="949" cy="839.5" fill="hsl(167, 85%, 37%)"></circle></g></svg>