<svg xmlns="http://www.w3.org/2000/svg" xmlns:svgjs="http://svgjs.dev/svgjs" xmlns:xlink="http://www.w3.org/1999/xlink" version="1.1" viewBox="0 0 800 800"><defs><linearGradient id="ccchaos-grad" x1="50%" x2="50%" y1="0%" y2="100%"><stop offset="0%" stop-color="hsl(206, 75%, 49%)" stop-opacity="1"/><stop offset="100%" stop-color="hsl(331, 90%, 56%)" stop-opacity="1"/></linearGradient></defs><g fill="none" stroke="hsl(0, 0%, 100%)" stroke-linecap="round" stroke-width="5.5"><path stroke-dasharray="10 2" d="M381.7 100.39C391.14 99.82 400.6 100.23 410.07 101.57 419.56 103.36 429.07 106.04 438.61 109.51 448.2 113.31 457.85 117.8 467.56 122.87 477.35 128.09 487.25 133.77 497.23 139.81 507.35 145.8 517.58 152.05 527.92 158.47 538.38 164.7 548.95 171.05 559.58 177.46 570.3 183.6 581.02 189.79 591.66 196.02 602.25 201.95 612.65 207.95 622.73 214.01 632.55 219.81 641.87 225.73 650.53 231.78 658.68 237.63 665.96 243.68 672.24 249.93 677.77 256.04 682.12 262.41 685.21 269.05 687.45 275.6 688.39 282.47 688.02 289.64 686.95 296.77 684.73 304.23 681.49 312.02 677.95 319.78 673.74 327.88 669.07 336.31 664.71 344.73 660.35 353.48 656.21 362.57 653.02 371.64 650.44 381.05 648.62 390.78 648.14 400.52 648.53 410.36 649.72 420.3 652.09 430.25 654.99 440.31 658.23 450.45 662.15 460.63 665.99 470.9 669.53 481.26 673.13 491.66 676.03 502.15 678.08 512.69 679.67 523.26 680.14 533.87 679.44 544.47 678.02 555.06 675.35 565.58 671.48 575.95 666.86 586.22 661.13 596.25 654.4 605.93 647.06 615.36 638.89 624.3 630.03 632.64 620.8 640.54 611.05 647.69 600.93 653.96 590.65 659.64 580.13 664.32 569.49 667.94 558.82 670.9 548.12 672.76 537.45 673.51 526.84 673.71 516.29 672.93 505.83 671.23 495.47 669.29 485.2 666.7 475.03 663.64 464.95 660.8 454.95 657.85 445.04 654.96 435.19 652.83 425.4 651.1 415.69 649.91 406.01 649.86 396.37 650.53 386.81 651.94 377.25 654.53 367.97 657.67 358.98 661.21 349.97 665.5 341.25 669.82 332.81 673.95 324.36 678.25 316.19 681.96 308.32 684.91 300.42 687.5 292.8 689.02 285.49 689.41 278.13 689.1 271.04 687.53 264.24 684.73 257.36 681.13 250.74 676.35 244.37 670.48 237.89 663.94 231.62 656.46 225.56 648.19 219.35 639.47 213.31 630.14 207.45 620.35 201.39 610.34 195.49 600.03 189.74 589.53 183.78 578.99 177.97 568.38 172.34 557.76 166.52 547.21 160.89 536.71 155.49 526.29 149.96 515.99 144.71 505.77 139.78 495.66 134.82 485.65 130.24 475.72 126.1 465.87 122.03 456.09 118.46 446.36 115.46 436.68 112.62 427.04 110.4 417.42 108.84 407.82 107.51 398.23 106.87 388.65 106.96 379.09 107.3 369.52 108.35 360.2 110.07 351.13 111.98 342.06 114.51 333.26 117.6 324.74 120.79 316.22 124.48 308 128.6 300.11 132.73 292.23 137.22 284.68 142.03 277.49 146.74 270.31 151.72 263.49 156.92 257.05 161.94 250.6 167.16 244.5 172.54 238.77 177.71 233 183.04 227.55 188.53 222.42 193.81 217.17 199.27 212.19 204.9 207.45 210.35 202.51 216.02 197.74 221.9 193.12 227.66 188.23 233.67 183.42 239.94 178.68 246.13 173.6 252.62 168.56 259.39 163.55 266.12 158.2 273.16 152.91 280.5 147.69 287.82 142.22 295.45 136.89 303.36 131.79 311.27 126.57 319.47 121.7 327.93 117.26 336.39 112.93 345.11 109.18 354.08 106.11 363.04 103.36 372.25 101.42 381.69 100.39" opacity=".55" transform="rotate(0, 400, 400)"/><path stroke-dasharray="2 8" d="M384.86 110.99C394.01 110.43 403.21 110.79 412.45 112.04 421.71 113.73 431.03 116.26 440.4 119.57 449.81 123.2 459.31 127.5 468.87 132.38 478.51 137.42 488.26 142.92 498.09 148.79 508.01 154.66 518.04 160.79 528.14 167.12 538.32 173.29 548.56 179.6 558.81 186 569.08 192.16 579.29 198.38 589.36 204.64 599.33 210.64 609.02 216.7 618.34 222.81 627.36 228.68 635.84 234.65 643.63 240.73 650.91 246.61 657.34 252.65 662.77 258.87 667.52 264.94 671.17 271.23 673.63 277.77 675.34 284.2 675.87 290.91 675.23 297.9 673.99 304.83 671.74 312.07 668.6 319.61 665.24 327.12 661.3 334.95 656.96 343.1 652.97 351.23 648.97 359.68 645.18 368.46 642.27 377.23 639.9 386.34 638.2 395.77 637.72 405.2 638.01 414.75 639.01 424.4 641.09 434.06 643.65 443.82 646.53 453.67 650.07 463.55 653.55 473.52 656.8 483.55 660.16 493.61 662.92 503.74 664.95 513.88 666.63 524.03 667.32 534.18 666.97 544.26 666.01 554.31 663.92 564.23 660.72 573.95 656.85 583.54 651.92 592.83 646.04 601.73 639.58 610.36 632.3 618.47 624.31 625.96 615.93 633.02 607.01 639.33 597.65 644.79 588.09 649.71 578.24 653.69 568.19 656.67 558.08 659.09 547.87 660.5 537.63 660.91 527.42 660.88 517.21 659.97 507.07 658.27 496.98 656.4 486.97 654 477.04 651.18 467.18 648.64 457.4 646.01 447.72 643.46 438.08 641.63 428.51 640.17 419.05 639.19 409.6 639.26 400.22 639.97 390.94 641.33 381.65 643.77 372.65 646.69 363.95 649.97 355.24 653.95 346.81 657.96 338.67 661.81 330.51 665.85 322.63 669.37 315.04 672.23 307.41 674.8 300.05 676.43 292.97 677.04 285.84 677.06 278.96 675.93 272.34 673.67 265.64 670.7 259.17 666.62 252.92 661.5 246.55 655.76 240.38 649.1 234.4 641.64 228.26 633.73 222.28 625.19 216.46 616.14 210.45 606.83 204.58 597.17 198.86 587.26 192.95 577.26 187.19 567.11 181.59 556.91 175.83 546.73 170.27 536.54 164.92 526.4 159.48 516.33 154.3 506.32 149.45 496.4 144.58 486.56 140.09 476.79 136.02 467.1 132.05 457.48 128.56 447.93 125.62 438.44 122.86 428.99 120.69 419.58 119.17 410.23 117.89 400.9 117.28 391.6 117.38 382.36 117.73 373.12 118.77 364.14 120.46 355.44 122.35 346.74 124.84 338.32 127.88 330.2 131.03 322.08 134.66 314.25 138.72 306.76 142.79 299.26 147.22 292.09 151.97 285.26 156.63 278.42 161.56 271.93 166.7 265.77 171.68 259.6 176.86 253.74 182.2 248.22 187.33 242.62 192.63 237.31 198.07 232.28 203.31 227.11 208.71 222.17 214.27 217.43 219.65 212.49 225.23 207.69 230.99 203.02 236.62 198.07 242.48 193.19 248.58 188.37 254.58 183.24 260.84 178.14 267.37 173.09 273.85 167.73 280.6 162.43 287.64 157.24 294.65 151.81 301.95 146.55 309.53 141.53 317.09 136.43 324.94 131.68 333.06 127.36 341.17 123.15 349.54 119.52 358.18 116.55 366.81 113.89 375.7 112.01 384.85 110.99" opacity=".27" transform="rotate(4.04, 400, 400)"/><path stroke-dasharray="4 7" d="M388.69 121.6C397.56 121.03 406.5 121.35 415.5 122.51 424.52 124.1 433.62 126.49 442.79 129.62 451.99 133.08 461.29 137.18 470.65 141.86 480.08 146.71 489.6 152.02 499.2 157.71 508.86 163.42 518.59 169.41 528.36 175.62 538.17 181.71 548 187.95 557.77 194.3 567.52 200.45 577.15 206.68 586.57 212.96 595.85 219 604.81 225.1 613.33 231.26 621.55 237.19 629.19 243.21 636.12 249.32 642.57 255.23 648.17 261.29 652.83 267.49 656.86 273.55 659.86 279.79 661.77 286.25 663.03 292.6 663.22 299.19 662.36 306.03 661.02 312.81 658.78 319.86 655.75 327.19 652.59 334.49 648.93 342.08 644.93 349.97 641.28 357.84 637.64 366.03 634.18 374.52 631.54 383.01 629.37 391.81 627.78 400.94 627.31 410.06 627.5 419.3 628.33 428.64 630.14 437.98 632.38 447.42 634.92 456.94 638.08 466.47 641.21 476.08 644.16 485.73 647.26 495.39 649.86 505.09 651.83 514.77 653.54 524.43 654.4 534.05 654.33 543.56 653.75 553 652.15 562.27 649.54 571.3 646.34 580.17 642.16 588.7 637.07 596.8 631.45 604.63 625.01 611.92 617.88 618.58 610.35 624.84 602.25 630.37 593.68 635.08 584.89 639.3 575.75 642.65 566.36 645.07 556.87 647.01 547.22 648.05 537.49 648.19 527.75 647.98 517.97 647 508.22 645.34 498.49 643.59 488.8 641.37 479.18 638.82 469.6 636.57 460.09 634.26 450.67 632.03 441.29 630.48 431.99 629.27 422.78 628.49 413.59 628.67 404.48 629.41 395.46 630.72 386.45 633.02 377.73 635.74 369.3 638.76 360.86 642.44 352.7 646.14 344.83 649.71 336.93 653.49 329.3 656.81 321.95 659.55 314.55 662.08 307.42 663.78 300.54 664.57 293.6 664.86 286.89 664.11 280.43 662.33 273.86 659.92 267.51 656.49 261.37 652.08 255.09 647.08 249 641.2 243.07 634.55 236.99 627.44 231.06 619.69 225.27 611.4 219.31 602.83 213.48 593.86 207.8 584.6 201.94 575.2 196.22 565.6 190.68 555.89 184.99 546.16 179.49 536.38 174.22 526.59 168.86 516.85 163.78 507.13 159.01 497.47 154.25 487.87 149.86 478.33 145.89 468.87 142.01 459.47 138.62 450.13 135.76 440.87 133.08 431.64 130.98 422.48 129.5 413.39 128.27 404.32 127.69 395.31 127.79 386.39 128.15 377.46 129.18 368.82 130.84 360.47 132.7 352.11 135.14 344.04 138.12 336.28 141.21 328.51 144.78 321.04 148.76 313.89 152.76 306.73 157.13 299.88 161.8 293.36 166.4 286.81 171.26 280.58 176.34 274.67 181.28 268.71 186.41 263.05 191.7 257.67 196.81 252.21 202.07 247 207.46 242.03 212.67 236.91 218.03 231.98 223.53 227.23 228.85 222.26 234.35 217.42 240.03 212.68 245.56 207.68 251.3 202.73 257.25 197.85 263.1 192.67 269.18 187.54 275.51 182.46 281.77 177.1 288.29 171.82 295.07 166.66 301.81 161.31 308.83 156.14 316.11 151.22 323.37 146.24 330.91 141.62 338.72 137.43 346.51 133.36 354.57 129.85 362.9 126.98 371.22 124.41 379.82 122.59 388.68 121.6" opacity=".48" transform="rotate(8.08, 400, 400)"/><path stroke-dasharray="3 1" d="M393.03 132.21C401.62 131.64 410.29 131.91 419.04 132.99 427.8 134.47 436.65 136.72 445.57 139.68 454.53 142.95 463.57 146.85 472.68 151.32 481.84 155.96 491.07 161.06 500.35 166.55 509.67 172.09 519.03 177.91 528.39 183.98 537.75 189.96 547.08 196.11 556.3 202.38 565.47 208.49 574.46 214.69 583.19 220.96 591.74 227.02 599.94 233.15 607.66 239.33 615.07 245.31 621.88 251.36 627.99 257.5 633.65 263.45 638.49 269.52 642.43 275.72 645.81 281.78 648.24 287.99 649.66 294.39 650.54 300.68 650.46 307.18 649.44 313.9 648.03 320.55 645.84 327.45 642.96 334.6 640.01 341.71 636.64 349.1 632.97 356.76 629.66 364.39 626.35 372.32 623.21 380.53 620.82 388.74 618.84 397.25 617.37 406.06 616.9 414.88 617.01 423.79 617.67 432.79 619.23 441.79 621.18 450.88 623.38 460.02 626.18 469.16 628.97 478.36 631.61 487.58 634.45 496.79 636.86 506 638.73 515.16 640.44 524.28 641.39 533.32 641.53 542.2 641.26 551 640.08 559.59 637.98 567.89 635.38 576.02 631.87 583.79 627.5 591.1 622.65 598.14 617.02 604.64 610.7 610.51 604.01 616.01 596.73 620.81 588.96 624.83 580.94 628.43 572.54 631.22 563.86 633.16 555.04 634.7 546.01 635.43 536.85 635.37 527.65 635.04 518.37 634.04 509.06 632.45 499.76 630.84 490.47 628.84 481.21 626.56 471.98 624.59 462.8 622.58 453.69 620.66 444.61 619.38 435.59 618.41 426.67 617.81 417.76 618.09 408.93 618.85 400.19 620.12 391.45 622.27 383 624.79 374.84 627.57 366.66 630.96 358.76 634.37 351.13 637.66 343.47 641.17 336.06 644.29 328.92 646.9 321.73 649.36 314.78 651.08 308.07 652 301.29 652.5 294.73 652.08 288.39 650.72 281.95 648.82 275.69 645.96 269.63 642.2 263.44 637.91 257.4 632.78 251.53 626.89 245.5 620.56 239.61 613.59 233.86 606.08 227.95 598.26 222.16 590.02 216.51 581.43 210.71 572.69 205.06 563.7 199.57 554.55 193.96 545.34 188.55 536.04 183.37 526.69 178.12 517.34 173.14 507.99 168.48 498.67 163.83 489.39 159.55 480.15 155.69 470.98 151.93 461.84 148.64 452.77 145.87 443.78 143.27 434.81 141.25 425.92 139.83 417.12 138.64 408.33 138.09 399.62 138.21 391 138.57 382.39 139.59 374.06 141.21 366.04 143.03 358 145.42 350.26 148.32 342.82 151.34 335.37 154.83 328.22 158.72 321.37 162.65 314.5 166.93 307.93 171.52 301.67 176.05 295.36 180.84 289.35 185.85 283.63 190.74 277.84 195.81 272.32 201.05 267.06 206.12 261.69 211.34 256.54 216.69 251.6 221.86 246.5 227.18 241.57 232.63 236.78 237.92 231.78 243.36 226.89 248.96 222.09 254.41 217.04 260.06 212.04 265.89 207.1 271.61 201.9 277.55 196.74 283.71 191.65 289.78 186.32 296.11 181.08 302.67 175.98 309.18 170.72 315.96 165.65 322.99 160.84 329.98 156 337.24 151.52 344.77 147.47 352.27 143.55 360.05 140.16 368.09 137.4 376.12 134.93 384.43 133.18 393.02 132.21" opacity=".82" transform="rotate(12.12, 400, 400)"/><path stroke-dasharray="8 0" d="M397.68 142.81C405.99 142.25 414.38 142.48 422.85 143.47 431.34 144.85 439.91 146.95 448.55 149.74 457.21 152.82 465.95 156.52 474.75 160.76 483.57 165.18 492.45 170.07 501.34 175.34 510.26 180.68 519.17 186.32 528.05 192.21 536.9 198.05 545.67 204.07 554.28 210.24 562.81 216.28 571.12 222.42 579.13 228.65 586.94 234.7 594.36 240.82 601.29 247 607.91 253 613.93 259.08 619.26 265.23 624.17 271.21 628.31 277.29 631.6 283.48 634.4 289.53 636.33 295.73 637.35 302.08 637.91 308.32 637.61 314.75 636.49 321.37 635.06 327.91 632.95 334.68 630.24 341.67 627.52 348.61 624.42 355.8 621.08 363.24 618.09 370.66 615.11 378.34 612.27 386.29 610.12 394.22 608.32 402.44 606.95 410.93 606.49 419.42 606.53 428 607.04 436.63 608.37 445.26 610.03 453.96 611.93 462.69 614.38 471.42 616.84 480.17 619.18 488.9 621.74 497.62 623.95 506.3 625.7 514.89 627.34 523.44 628.34 531.85 628.63 540.09 628.6 548.21 627.76 556.1 626.09 563.67 624.01 571.06 621.09 578.07 617.37 584.61 613.24 590.89 608.36 596.64 602.81 601.77 596.91 606.57 590.42 610.7 583.44 614.12 576.2 617.16 568.56 619.46 560.59 621 552.47 622.21 544.11 622.7 535.57 622.49 526.96 622.1 518.23 621.12 509.43 619.64 500.62 618.18 491.78 616.4 482.94 614.39 474.11 612.7 465.3 610.99 456.54 609.37 447.8 608.34 439.11 607.58 430.5 607.15 421.9 607.51 413.36 608.3 404.91 609.51 396.46 611.53 388.28 613.86 380.37 616.4 372.45 619.52 364.78 622.64 357.38 625.66 349.94 628.91 342.74 631.81 335.79 634.27 328.78 636.64 322 638.36 315.44 639.36 308.8 640.03 302.37 639.88 296.13 638.87 289.79 637.41 283.62 635.08 277.62 631.91 271.5 628.26 265.53 623.82 259.7 618.66 253.73 613.09 247.88 606.88 242.17 600.12 236.32 593.07 230.58 585.56 224.99 577.69 219.26 569.63 213.68 561.3 208.27 552.76 202.76 544.13 197.45 535.36 192.37 526.51 187.24 517.64 182.38 508.73 177.84 499.81 173.33 490.91 169.18 482.03 165.43 473.2 161.8 464.39 158.62 455.63 155.95 446.95 153.46 438.29 151.51 429.7 150.15 421.2 149.02 412.71 148.5 404.3 148.63 396 148.99 387.7 149.98 379.68 151.56 371.97 153.34 364.24 155.66 356.8 158.48 349.65 161.43 342.49 164.82 335.61 168.62 329.03 172.45 322.41 176.64 316.08 181.13 310.02 185.57 303.92 190.28 298.09 195.2 292.51 200.02 286.86 205.03 281.44 210.21 276.25 215.23 270.95 220.4 265.84 225.71 260.9 230.85 255.81 236.13 250.86 241.53 246.03 246.78 241 252.17 236.07 257.7 231.21 263.1 226.12 268.66 221.08 274.39 216.11 280.02 210.9 285.83 205.74 291.85 200.67 297.78 195.39 303.94 190.21 310.31 185.18 316.63 180.03 323.19 175.09 330 170.41 336.76 165.72 343.77 161.39 351.04 157.48 358.29 153.72 365.8 150.47 373.57 147.82 381.33 145.45 389.36 143.76 397.67 142.81" opacity=".68" transform="rotate(16.16, 400, 400)"/><path stroke-dasharray="0 9" d="M402.43 153.42C410.45 152.86 418.55 153.05 426.72 153.96 434.91 155.23 443.17 157.19 451.48 159.8 459.81 162.69 468.2 166.18 476.63 170.19 485.06 174.39 493.53 179.04 501.98 184.08 510.43 189.2 518.84 194.63 527.17 200.32 535.46 205.99 543.62 211.86 551.59 217.89 559.45 223.82 567.06 229.88 574.33 236.03 581.4 242.03 588.05 248.12 594.21 254.27 600.06 260.26 605.33 266.33 609.94 272.47 614.17 278.46 617.66 284.54 620.38 290.72 622.68 296.76 624.17 302.93 624.86 309.23 625.16 315.43 624.7 321.79 623.52 328.31 622.11 334.76 620.11 341.4 617.59 348.24 615.1 355.03 612.29 362.04 609.27 369.27 606.58 376.47 603.91 383.92 601.36 391.59 599.43 399.26 597.8 407.17 596.54 415.33 596.08 423.48 596.05 431.7 596.43 439.95 597.54 448.19 598.95 456.48 600.55 464.76 602.68 473.03 604.82 481.3 606.86 489.52 609.14 497.71 611.13 505.83 612.72 513.83 614.28 521.77 615.28 529.54 615.66 537.1 615.8 544.55 615.23 551.73 613.92 558.58 612.27 565.25 609.87 571.52 606.73 577.33 603.23 582.89 599.04 587.93 594.2 592.39 589.05 596.55 583.32 600.09 577.09 602.96 570.62 605.52 563.73 607.41 556.48 608.61 549.08 609.56 541.4 609.88 533.51 609.59 525.53 609.17 517.39 608.25 509.15 606.9 500.87 605.62 492.52 604.07 484.15 602.33 475.77 600.91 467.38 599.49 459.01 598.14 450.66 597.35 442.33 596.78 434.05 596.51 425.78 596.94 417.56 597.74 409.41 598.9 401.26 600.79 393.35 602.93 385.7 605.26 378.03 608.11 370.6 610.96 363.41 613.71 356.19 616.7 349.19 619.38 342.4 621.68 335.57 623.93 328.95 625.61 322.51 626.67 316.01 627.46 309.69 627.52 303.54 626.82 297.31 625.73 291.22 623.86 285.29 621.21 279.24 618.15 273.33 614.35 267.55 609.87 261.64 605.01 255.85 599.54 250.19 593.51 244.41 587.21 238.74 580.44 233.22 573.28 227.58 565.93 222.09 558.27 216.78 550.38 211.38 542.37 206.19 534.19 201.22 525.9 196.24 517.55 191.52 509.13 187.11 500.68 182.74 492.23 178.73 483.76 175.12 475.32 171.63 466.89 168.57 458.5 166.01 450.16 163.62 441.84 161.76 433.59 160.47 425.41 159.4 417.25 158.91 409.16 159.04 401.17 159.41 393.18 160.37 385.48 161.9 378.05 163.62 370.62 165.87 363.46 168.6 356.58 171.46 349.69 174.76 343.06 178.44 336.7 182.17 330.31 186.25 324.17 190.62 318.29 194.97 312.36 199.58 306.67 204.41 301.2 209.15 295.66 214.08 290.32 219.17 285.18 224.14 279.92 229.26 274.83 234.5 269.89 239.6 264.79 244.84 259.82 250.19 254.95 255.4 249.9 260.74 244.92 266.21 240.02 271.55 234.91 277.05 229.86 282.7 224.87 288.23 219.68 293.95 214.55 299.84 209.51 305.65 204.3 311.66 199.21 317.88 194.28 324.03 189.26 330.4 184.45 337 179.92 343.55 175.4 350.35 171.23 357.38 167.48 364.38 163.87 371.64 160.76 379.15 158.23 386.64 155.96 394.4 154.34 402.42 153.42" opacity=".36" transform="rotate(20.200000000000003, 400, 400)"/><path stroke-dasharray="1 11" d="M407.07 164.03C414.79 163.47 422.59 163.62 430.43 164.45 438.29 165.61 446.21 167.43 454.16 169.86 462.12 172.57 470.12 175.84 478.12 179.61 486.12 183.58 494.12 187.98 502.08 192.77 510.02 197.66 517.88 202.86 525.63 208.33 533.32 213.8 540.84 219.49 548.14 225.35 555.32 231.14 562.21 237.07 568.75 243.1 575.08 249.02 581 255.03 586.42 261.12 591.55 267.08 596.13 273.11 600.07 279.21 603.68 285.18 606.61 291.23 608.82 297.37 610.68 303.39 611.81 309.52 612.23 315.76 612.33 321.91 611.77 328.19 610.57 334.62 609.22 340.97 607.34 347.49 605.03 354.18 602.77 360.82 600.24 367.65 597.53 374.67 595.14 381.66 592.76 388.86 590.47 396.26 588.75 403.65 587.28 411.25 586.12 419.06 585.67 426.88 585.59 434.72 585.84 442.56 586.76 450.4 587.92 458.24 589.26 466.05 591.07 473.86 592.91 481.61 594.66 489.29 596.67 496.94 598.42 504.48 599.85 511.86 601.28 519.18 602.24 526.31 602.66 533.2 602.91 539.98 602.54 546.47 601.53 552.61 599.25 561.37 590.91 576.37 584.93 582.42 580.46 586.01 575.44 589.02 569.93 591.43 564.2 593.58 558.03 595.13 551.5 596.08 544.81 596.83 537.82 597.02 530.59 596.69 523.26 596.29 515.74 595.46 508.07 594.26 500.37 593.17 492.55 591.86 484.68 590.38 476.79 589.23 468.85 588.07 460.91 586.98 452.97 586.4 445.03 586.02 437.12 585.88 429.21 586.38 421.33 587.19 413.49 588.3 405.65 590.06 398.03 592.02 390.64 594.14 383.23 596.73 376.04 599.32 369.06 601.81 362.05 604.54 355.24 607.01 348.62 609.13 341.96 611.25 335.48 612.87 329.18 613.94 322.81 614.81 316.6 615.03 310.55 614.58 304.41 613.81 298.41 612.33 292.54 610.15 286.58 607.62 280.74 604.4 275.02 600.53 269.19 596.34 263.48 591.55 257.89 586.24 252.19 580.65 246.61 574.6 241.18 568.15 235.65 561.52 230.27 554.55 225.07 547.32 219.82 539.97 214.76 532.41 209.94 524.7 205.11 516.93 200.55 509.05 196.29 501.11 192.09 493.14 188.23 485.14 184.77 477.14 181.42 469.14 178.5 461.15 176.05 453.2 173.78 445.26 172.01 437.36 170.79 429.53 169.77 421.71 169.32 413.96 169.46 406.29 169.82 398.63 170.76 391.22 172.23 384.08 173.9 376.94 176.06 370.05 178.7 363.41 181.46 356.76 184.64 350.36 188.2 344.2 191.81 338.01 195.77 332.04 200.01 326.31 204.25 320.53 208.74 314.95 213.45 309.57 218.1 304.12 222.93 298.84 227.93 293.73 232.83 288.51 237.87 283.43 243.05 278.48 248.09 273.39 253.27 268.39 258.56 263.5 263.72 258.43 269.01 253.44 274.42 248.51 279.71 243.41 285.14 238.36 290.7 233.38 296.17 228.23 301.79 223.15 307.57 218.18 313.27 213.07 319.15 208.09 325.22 203.28 331.22 198.4 337.43 193.75 343.83 189.38 350.2 185.04 356.79 181.04 363.59 177.45 370.37 174.01 377.38 171.05 384.63 168.63 391.86 166.47 399.34 164.91 407.06 164.03" opacity=".15" transform="rotate(24.24, 400, 400)"/><path stroke-dasharray="9 4" d="M411.4 174.63C418.81 174.08 426.27 174.19 433.77 174.95 441.27 176.01 448.81 177.68 456.36 179.94 463.92 182.45 471.49 185.5 479.03 189.04 486.56 192.76 494.06 196.91 501.48 201.44 508.88 206.07 516.16 211.03 523.3 216.25 530.36 221.5 537.23 226.97 543.85 232.63 550.35 238.24 556.54 244.01 562.36 249.89 568 255.69 573.21 261.59 577.93 267.57 582.4 273.45 586.34 279.41 589.69 285.44 592.74 291.36 595.17 297.35 596.95 303.43 598.44 309.4 599.28 315.47 599.48 321.63 599.45 327.71 598.83 333.9 597.66 340.21 596.38 346.46 594.65 352.85 592.55 359.37 590.53 365.86 588.27 372.5 585.86 379.3 583.75 386.08 581.65 393.03 579.61 400.14 578.09 407.25 576.77 414.53 575.7 421.98 575.27 429.44 575.13 436.88 575.28 444.3 576.02 451.72 576.95 459.11 578.04 466.43 579.57 473.74 581.11 480.98 582.59 488.1 584.31 495.19 585.83 502.14 587.07 508.91 588.36 515.62 589.24 522.11 589.67 528.34 589.86 537.38 587.15 553.54 584.14 560.49 580.16 566.69 569.01 576.28 561.98 579.58 556.93 581.39 551.46 582.67 545.61 583.42 539.62 584.03 533.31 584.16 526.73 583.83 520.06 583.48 513.16 582.77 506.09 581.74 498.98 580.85 491.72 579.76 484.37 578.55 477 577.64 469.55 576.73 462.06 575.88 454.57 575.5 447.05 575.29 439.52 575.27 432 575.83 424.48 576.63 416.97 577.69 409.46 579.33 402.15 581.13 395.02 583.04 387.89 585.39 380.94 587.72 374.17 589.97 367.39 592.45 360.77 594.69 354.32 596.64 347.84 598.6 341.51 600.14 335.34 601.19 329.11 602.11 323.02 602.44 317.06 602.19 311.04 601.68 305.13 600.53 299.35 598.75 293.49 596.68 287.73 593.97 282.09 590.68 276.36 587.09 270.74 582.94 265.24 578.29 259.66 573.39 254.19 568.03 248.87 562.27 243.48 556.33 238.24 550.05 233.18 543.49 228.08 536.8 223.18 529.88 218.52 522.79 213.87 515.62 209.47 508.31 205.39 500.91 201.36 493.48 197.67 485.98 194.37 478.45 191.18 470.92 188.4 463.36 186.08 455.83 183.92 448.3 182.25 440.79 181.1 433.34 180.15 425.88 179.73 418.48 179.88 411.14 180.23 403.81 181.14 396.71 182.56 389.85 184.15 382.99 186.23 376.36 188.76 369.96 191.41 363.54 194.47 357.35 197.89 351.37 201.38 345.36 205.2 339.56 209.3 333.95 213.41 328.3 217.77 322.82 222.34 317.52 226.88 312.14 231.6 306.92 236.49 301.84 241.29 296.65 246.25 291.58 251.33 286.63 256.31 281.55 261.41 276.55 266.63 271.65 271.73 266.59 276.95 261.59 282.29 256.67 287.52 251.59 292.88 246.58 298.36 241.64 303.74 236.55 309.27 231.56 314.95 226.68 320.54 221.69 326.3 216.84 332.22 212.18 338.09 207.47 344.13 202.99 350.36 198.8 356.54 194.64 362.93 190.83 369.51 187.41 376.07 184.13 382.84 181.32 389.82 179.03 396.79 176.97 403.98 175.49 411.39 174.63" opacity=".99" transform="rotate(28.28, 400, 400)"/><path stroke-dasharray="1 11" d="M415.22 185.24C422.3 184.7 429.41 184.77 436.53 185.45 443.66 186.41 450.8 187.94 457.92 190.02 465.05 192.35 472.15 195.18 479.2 198.47 486.24 201.94 493.21 205.83 500.07 210.09 506.89 214.46 513.58 219.14 520.1 224.1 526.53 229.1 532.75 234.33 538.7 239.75 544.53 245.16 550.04 250.73 555.18 256.42 560.15 262.06 564.71 267.81 568.8 273.64 572.66 279.4 576.02 285.25 578.84 291.16 581.41 296.99 583.41 302.89 584.83 308.86 586.02 314.76 586.63 320.73 586.68 326.78 586.55 332.77 585.91 338.85 584.8 345.02 583.62 351.15 582.06 357.39 580.17 363.74 578.39 370.05 576.4 376.49 574.27 383.06 572.43 389.61 570.58 396.3 568.79 403.12 567.45 409.93 566.27 416.88 565.29 423.96 564.87 431.04 564.69 438.08 564.74 445.07 565.31 452.05 566.05 458.97 566.9 465.8 568.16 472.61 569.43 479.32 570.64 485.88 572.1 492.41 573.38 498.78 574.43 504.95 575.94 513.99 576.97 530.63 576.27 538.07 574.82 544.95 568.98 556.44 564.6 560.93 559.41 564.69 546.45 569.56 538.85 570.71 533.51 571.23 527.86 571.33 521.92 571.05 515.89 570.77 509.62 570.19 503.15 569.35 496.63 568.65 489.94 567.79 483.13 566.83 476.29 566.16 469.34 565.48 462.33 564.86 455.31 564.65 448.23 564.59 441.11 564.68 433.99 565.28 426.85 566.08 419.69 567.08 412.54 568.6 405.53 570.24 398.69 571.97 391.85 574.09 385.15 576.18 378.62 578.19 372.06 580.42 365.65 582.44 359.38 584.2 353.09 586.01 346.92 587.44 340.89 588.46 334.82 589.37 328.86 589.79 323.02 589.68 317.13 589.37 311.34 588.5 305.66 587.06 299.92 585.38 294.27 583.13 288.74 580.34 283.13 577.3 277.63 573.73 272.25 569.69 266.8 565.43 261.48 560.72 256.3 555.63 251.06 550.36 245.99 544.75 241.09 538.85 236.17 532.82 231.46 526.54 226.97 520.07 222.51 513.52 218.31 506.8 214.41 499.96 210.57 493.09 207.07 486.12 203.93 479.09 200.91 472.05 198.28 464.97 196.09 457.87 194.06 450.78 192.49 443.69 191.41 436.62 190.52 429.55 190.14 422.51 190.29 415.51 190.64 408.52 191.51 401.73 192.87 395.16 194.39 388.58 196.38 382.2 198.79 376.03 201.33 369.85 204.25 363.85 207.53 358.05 210.87 352.21 214.54 346.56 218.48 341.07 222.44 335.54 226.65 330.16 231.08 324.94 235.48 319.63 240.07 314.46 244.82 309.42 249.51 304.28 254.36 299.24 259.33 294.3 264.21 289.24 269.22 284.26 274.34 279.37 279.37 274.34 284.51 269.38 289.76 264.49 294.92 259.46 300.19 254.51 305.57 249.65 310.88 244.66 316.31 239.78 321.87 235.02 327.36 230.18 332.99 225.49 338.77 220.99 344.49 216.47 350.38 212.18 356.42 208.17 362.43 204.21 368.61 200.59 374.97 197.35 381.3 194.25 387.83 191.59 394.53 189.42 401.23 187.47 408.12 186.06 415.21 185.24" opacity=".29" transform="rotate(32.32, 400, 400)"/><path stroke-dasharray="8 4" d="M418.36 195.85C425.09 195.31 431.84 195.36 438.56 195.96 445.29 196.82 452 198.21 458.67 200.12 465.34 202.25 471.96 204.86 478.5 207.91 485.02 211.13 491.44 214.75 497.74 218.73 503.98 222.82 510.07 227.22 515.97 231.89 521.78 236.62 527.36 241.59 532.66 246.75 537.85 251.91 542.72 257.25 547.23 262.71 551.58 268.15 555.53 273.71 559.05 279.36 562.37 284.96 565.22 290.64 567.58 296.4 569.73 302.1 571.38 307.87 572.51 313.7 573.45 319.47 573.89 325.32 573.84 331.23 573.66 337.09 573.04 343.02 572.01 349.04 570.95 355.01 569.56 361.07 567.89 367.22 566.34 373.35 564.61 379.57 562.75 385.89 561.16 392.19 559.55 398.6 557.98 405.1 556.81 411.6 555.77 418.21 554.87 424.9 554.47 431.6 554.25 438.23 554.22 444.77 554.64 451.31 555.2 457.76 555.84 464.09 556.85 470.4 557.86 476.58 558.82 482.6 560.55 491.48 563.19 508.14 563.85 515.79 564.09 523.02 562.34 535.67 560.23 540.97 553.32 549.25 537.94 556.99 531.23 557.98 523.99 558.51 507.9 557.97 499.19 557.1 493.26 556.59 487.14 555.96 480.87 555.23 474.57 554.78 468.14 554.32 461.62 553.89 455.08 553.85 448.45 553.91 441.76 554.1 435.07 554.73 428.32 555.53 421.54 556.48 414.75 557.88 408.08 559.37 401.54 560.92 395 562.81 388.58 564.68 382.29 566.46 375.98 568.45 369.79 570.26 363.73 571.83 357.64 573.47 351.66 574.79 345.79 575.73 336.99 576.85 319.82 576.59 311.46 575.11 305.86 573.77 300.35 571.91 294.95 569.55 289.5 566.99 284.15 563.95 278.92 560.47 273.64 556.79 268.48 552.69 263.46 548.22 258.42 543.59 253.53 538.62 248.82 533.35 244.11 527.96 239.6 522.32 235.31 516.46 231.06 510.53 227.07 504.41 223.37 498.14 219.74 491.84 216.42 485.41 213.46 478.9 210.62 472.37 208.15 465.78 206.09 459.15 204.19 452.51 202.73 445.85 201.72 439.19 200.9 432.52 200.56 425.86 200.71 419.22 201.05 412.58 201.88 406.11 203.17 399.83 204.62 393.54 206.51 387.42 208.8 381.48 211.2 375.52 213.99 369.73 217.1 364.1 220.3 358.44 223.8 352.93 227.57 347.57 231.37 342.17 235.41 336.89 239.67 331.74 243.91 326.53 248.35 321.43 252.95 316.43 257.5 311.35 262.21 306.36 267.04 301.45 271.81 296.45 276.71 291.52 281.71 286.66 286.64 281.69 291.67 276.79 296.81 271.97 301.87 267.04 307.04 262.18 312.32 257.42 317.52 252.57 322.84 247.82 328.27 243.21 333.64 238.54 339.14 234.03 344.76 229.72 350.34 225.4 356.06 221.31 361.91 217.5 367.73 213.76 373.71 210.33 379.83 207.28 385.93 204.35 392.2 201.85 398.62 199.81 405.03 197.97 411.61 196.64 418.35 195.85" opacity=".22" transform="rotate(36.36, 400, 400)"/><path stroke-dasharray="4 5" d="M420.68 206.45C427.05 205.93 433.41 205.95 439.72 206.48 446.03 207.24 452.3 208.5 458.51 210.24 470.89 214.32 482.95 220.13 494.43 227.37 505.74 235.08 516.28 243.93 525.77 253.64 534.83 263.44 542.58 273.88 548.76 284.75 554.29 295.5 558.09 306.61 560.04 317.95 561.43 329.12 561.14 340.57 559.31 352.24 557.5 363.78 554.72 375.64 551.31 387.74 549.95 393.77 548.57 399.88 547.2 406.06 546.19 412.24 545.27 418.48 544.45 424.78 544.07 431.08 543.82 437.29 543.72 443.39 544.01 449.48 544.4 455.45 544.86 461.29 546.72 472.91 548.4 483.89 549.57 494.01 551.17 503.92 551.64 512.81 550.77 520.43 549.61 527.7 546.8 533.56 542.36 537.89 537.39 541.84 530.81 544.3 522.83 545.3 514.42 546.23 504.81 546.06 494.24 545 483.46 544.56 471.93 543.8 459.87 543 453.82 543.1 447.66 543.27 441.41 543.54 435.16 544.2 428.82 544.98 422.42 545.87 416.02 547.16 409.7 548.51 403.49 549.89 397.27 551.58 391.14 553.23 385.11 554.79 373.03 558.48 361.3 561.33 349.98 563.05 338.55 564.68 327.43 564.67 316.72 562.96 305.84 560.65 295.31 556.5 285.24 550.67 275.06 544.2 265.38 536.22 256.38 526.99 247.44 517.35 239.32 506.72 232.27 495.38 225.53 483.86 220.06 471.83 216.09 459.52 214.32 453.36 212.96 447.14 212.04 440.89 211.28 434.65 210.97 428.38 211.13 422.1 211.46 415.82 212.25 409.69 213.47 403.7 214.84 397.71 216.62 391.85 218.78 386.15 223.43 374.7 229.45 363.76 236.56 353.35 243.83 342.77 252 332.6 260.86 322.83 269.61 312.76 278.94 302.98 288.71 293.51 298.24 283.69 308.21 274.13 318.54 264.96 328.64 255.52 339.18 246.58 350.12 238.37 360.91 230.2 372.2 223.04 383.96 217.19 389.82 214.45 395.81 212.1 401.93 210.19 408.04 208.46 414.29 207.21 420.67 206.46" opacity=".52" transform="rotate(40.400000000000006, 400, 400)"/><path stroke-dasharray="1 0" d="M422.08 217.06C434.07 216.26 445.87 217.42 457.33 220.37 468.76 224.07 479.76 229.38 490.13 236.04 500.32 243.15 509.71 251.38 518.05 260.45 526.02 269.67 532.73 279.55 537.99 289.88 542.73 300.15 545.91 310.79 547.47 321.68 548.63 332.44 548.34 343.47 546.72 354.66 545.21 365.77 542.86 377.12 539.94 388.63 537.91 400.11 535.87 411.8 534.04 423.59 533.68 435.39 533.68 446.71 533.94 457.43 535.37 468.09 536.6 478.06 537.39 487.14 538.63 496.05 538.91 503.95 538.05 510.66 535.83 519.66 523.62 530.63 513.73 532.7 506.36 533.7 497.82 533.76 488.32 533.06 478.64 532.98 468.16 532.61 457.07 532.16 445.94 532.91 434.3 533.94 422.3 535.26 410.31 537.96 398.53 540.67 387.06 543.18 375.57 546.42 364.35 548.92 353.46 550.43 342.49 551.94 331.8 552.03 321.47 550.64 311.02 548.8 300.91 545.33 291.26 540.34 281.55 534.84 272.33 527.91 263.8 519.8 255.36 511.32 247.73 501.84 241.12 491.61 234.84 481.21 229.75 470.24 226.08 458.89 222.96 447.5 221.39 435.83 221.54 424.03 222.34 412.23 224.81 400.85 228.74 389.95 233.11 379 238.77 368.45 245.48 358.35 252.37 348.1 260.13 338.17 268.58 328.59 276.97 318.78 285.94 309.21 295.35 299.95 304.58 290.4 314.23 281.14 324.22 272.29 334.03 263.26 344.24 254.74 354.78 246.96 365.21 239.27 376.05 232.55 387.28 227.09 398.45 222.12 410.08 218.69 422.07 217.06" opacity=".94" transform="rotate(44.44, 400, 400)"/><path stroke-dasharray="7 1" d="M422.49 227.67C433.69 226.88 444.62 227.88 455.12 230.53 465.59 233.84 475.56 238.65 484.85 244.73 493.99 251.24 502.3 258.82 509.58 267.23 516.56 275.82 522.36 285.07 526.83 294.78 530.9 304.49 533.6 314.59 534.87 324.92 535.87 335.19 535.63 345.71 534.26 356.36 533.05 366.96 531.11 377.73 528.65 388.6 526.99 399.45 525.26 410.42 523.62 421.39 523.25 432.37 523.09 442.8 523.11 452.59 524.13 462.33 524.96 471.34 525.39 479.47 526.27 487.47 526.34 494.49 525.44 500.41 523.42 508.39 512.73 518.22 504.05 520.24 497.59 521.34 490.03 521.64 481.53 521.3 472.87 521.54 463.4 521.52 453.27 521.39 443.1 522.31 432.36 523.39 421.19 524.66 410.02 527.1 398.96 529.48 388.13 531.63 377.28 534.44 366.62 536.59 356.23 537.87 345.79 539.23 335.59 539.37 325.72 538.21 315.78 536.73 306.16 533.83 296.99 529.56 287.8 524.89 279.12 518.91 271.1 511.81 263.2 504.4 256.08 496.01 249.95 486.85 244.13 477.53 239.44 467.59 236.07 457.19 233.21 446.76 231.79 435.96 231.96 424.93 232.72 413.9 235.02 403.16 238.68 392.79 242.76 382.38 248.04 372.28 254.33 362.52 260.8 352.65 268.13 343.03 276.11 333.72 284.1 324.22 292.65 314.94 301.63 305.97 310.5 296.78 319.78 287.89 329.36 279.43 338.82 270.85 348.63 262.8 358.72 255.49 368.73 248.3 379.08 242.05 389.72 236.99 400.34 232.38 411.29 229.19 422.49 227.67" opacity=".59" transform="rotate(48.48, 400, 400)"/><path stroke-dasharray="7 4" d="M421.9 238.27C432.29 237.5 442.33 238.36 451.89 240.71 461.41 243.65 470.38 247.97 478.65 253.46 486.79 259.37 494.11 266.29 500.45 274 506.54 281.91 511.55 290.48 515.36 299.52 518.88 308.6 521.19 318.07 522.27 327.78 523.19 337.47 523.05 347.39 521.93 357.42 521.02 367.43 519.47 377.57 517.43 387.74 516.1 397.91 514.66 408.13 513.2 418.27 512.82 428.42 512.55 437.98 512.34 446.88 513.01 455.74 513.47 463.86 513.57 471.13 514.03 481.43 511.05 496.93 506.99 501.98 501.55 505.9 484.89 509.45 473.97 509.71 466.25 510.25 457.73 510.53 448.54 510.68 439.3 511.73 429.46 512.85 419.14 514.05 408.81 516.25 398.51 518.32 388.36 520.14 378.2 522.55 368.16 524.35 358.34 525.41 348.51 526.58 338.86 526.7 329.52 525.7 320.16 524.5 311.1 522.05 302.47 518.39 293.87 514.43 285.76 509.29 278.29 503.09 270.97 496.65 264.4 489.27 258.75 481.11 253.42 472.82 249.13 463.87 246.07 454.42 243.47 444.93 242.19 435 242.37 424.76 243.09 414.52 245.22 404.46 248.61 394.66 252.38 384.83 257.27 375.21 263.11 365.87 269.14 356.43 275.99 347.2 283.48 338.23 291.01 329.12 299.09 320.22 307.58 311.61 316.02 302.86 324.85 294.41 333.97 286.39 343 278.33 352.35 270.79 361.93 263.98 371.46 257.31 381.26 251.54 391.28 246.88 401.27 242.63 411.51 239.7 421.9 238.27" opacity=".99" transform="rotate(52.52, 400, 400)"/><path stroke-dasharray="1 4" d="M420.34 248.88C429.89 248.13 439.04 248.84 447.68 250.91 456.27 253.49 464.3 257.33 471.62 262.25 478.83 267.55 485.25 273.79 490.76 280.79 496.08 288 500.42 295.85 503.69 304.15 506.76 312.54 508.78 321.32 509.74 330.33 510.63 339.36 510.61 348.61 509.76 357.96 509.13 367.3 507.93 376.74 506.29 386.18 505.26 395.62 504.07 405.06 502.79 414.37 502.4 423.68 502.03 432.4 501.65 440.45 502.01 448.47 502.14 455.78 501.95 462.28 501.97 471.5 498.78 485.41 495.05 490.02 490.21 493.75 475.48 497.63 465.77 498.32 458.92 499.11 451.28 499.65 442.99 500.03 434.65 501.17 425.7 502.32 416.23 503.44 406.76 505.41 397.25 507.2 387.82 508.71 378.39 510.74 369.04 512.22 359.86 513.04 350.68 514.01 341.67 514.08 332.93 513.18 324.21 512.17 315.77 510.08 307.75 506.93 299.78 503.56 292.29 499.13 285.42 493.74 278.7 488.16 272.69 481.69 267.55 474.47 262.7 467.14 258.82 459.14 256.07 450.59 253.73 442.02 252.59 432.96 252.79 423.53 253.46 414.09 255.42 404.73 258.52 395.55 261.98 386.34 266.47 377.27 271.84 368.4 277.41 359.48 283.76 350.7 290.71 342.16 297.72 333.52 305.28 325.07 313.23 316.91 321.17 308.66 329.49 300.72 338.07 293.22 346.61 285.71 355.42 278.73 364.43 272.43 373.41 266.31 382.61 261.02 391.95 256.77 401.28 252.89 410.78 250.2 420.34 248.88" opacity=".94" transform="rotate(56.56, 400, 400)"/><path stroke-dasharray="10 1" d="M417.87 259.49C426.58 258.76 434.84 259.35 442.59 261.14 450.29 263.38 457.42 266.76 463.88 271.11 470.24 275.8 475.86 281.37 480.64 287.65 485.28 294.13 489.06 301.22 491.9 308.76 494.61 316.4 496.41 324.42 497.32 332.69 498.22 340.99 498.34 349.5 497.74 358.1 497.38 366.71 496.51 375.4 495.22 384.06 494.45 392.73 493.49 401.37 492.37 409.84 491.99 418.32 491.54 426.22 491.02 433.48 491.04 443.99 490.15 461.36 488.66 468.07 486.69 473.92 478.82 481.81 472.76 484.06 468.35 485.55 463.11 486.54 457.1 487.11 451.02 488.11 444.22 488.87 436.77 489.44 429.28 490.64 421.2 491.79 412.6 492.84 403.99 494.59 395.3 496.11 386.63 497.33 377.98 499.02 369.36 500.2 360.88 500.79 352.42 501.55 344.1 501.53 336.03 500.69 328 499.8 320.24 497.98 312.88 495.24 305.59 492.35 298.76 488.53 292.5 483.85 286.41 479.02 280.98 473.38 276.36 467.02 272 460.56 268.53 453.46 266.08 445.79 263.99 438.1 263 429.9 263.21 421.29 263.82 412.66 265.61 404.04 268.43 395.51 271.56 386.97 275.65 378.51 280.54 370.19 285.63 361.84 291.43 353.6 297.81 345.56 304.28 337.46 311.26 329.55 318.62 321.91 326 314.24 333.74 306.87 341.72 299.92 349.69 293.02 357.91 286.61 366.28 280.87 374.65 275.3 383.19 270.5 391.81 266.65 400.44 263.14 409.16 260.7 417.87 259.49" opacity=".36" transform="rotate(60.599999999999994, 400, 400)"/><path stroke-dasharray="7 6" d="M414.6 270.09C422.46 269.4 429.86 269.87 436.75 271.4 443.61 273.32 449.91 276.24 455.56 280.04 461.15 284.15 466.06 289.05 470.22 294.6 474.29 300.34 477.59 306.66 480.09 313.41 482.51 320.26 484.17 327.49 485.06 334.95 485.98 342.46 486.25 350.18 485.9 357.99 485.77 365.82 485.19 373.71 484.22 381.57 483.68 389.44 482.92 397.26 481.95 404.91 481.59 412.56 481.08 419.66 480.45 426.17 480.15 435.59 478.57 451.17 476.89 457.24 471.18 466.38 455.8 474.71 448.14 476.09 442.76 477.26 436.71 478.19 430.06 478.9 423.39 480.14 416.15 481.26 408.4 482.23 400.65 483.77 392.79 485.05 384.93 486.03 377.08 487.39 369.24 488.29 361.52 488.67 353.82 489.22 346.24 489.1 338.9 488.27 331.61 487.45 324.57 485.83 317.91 483.42 311.34 480.93 305.19 477.62 299.58 473.55 294.14 469.38 289.29 464.46 285.19 458.88 281.32 453.23 278.25 446.96 276.1 440.13 274.27 433.29 273.41 425.93 273.62 418.13 274.19 410.33 275.79 402.46 278.33 394.64 281.14 386.81 284.81 379 289.21 371.3 293.8 363.59 299.05 355.96 304.83 348.5 310.71 341.03 317.07 333.72 323.8 326.68 330.56 319.63 337.65 312.88 344.98 306.55 352.31 300.28 359.87 294.48 367.56 289.3 375.25 284.29 383.08 279.99 390.94 276.54 398.82 273.39 406.74 271.2 414.6 270.09" opacity=".37" transform="rotate(64.64, 400, 400)"/><path stroke-dasharray="5 6" d="M410.68 280.7C417.69 280.04 424.26 280.4 430.33 281.69 436.38 283.3 441.9 285.8 446.84 289.07 451.73 292.6 456.02 296.84 459.64 301.68 463.21 306.69 466.12 312.23 468.35 318.16 470.54 324.21 472.09 330.61 472.99 337.24 473.95 343.93 474.36 350.81 474.24 357.79 474.32 364.79 473.99 371.86 473.29 378.89 472.95 385.93 472.36 392.92 471.54 399.75 470.92 409.75 469.39 427.13 468.28 434.41 465.28 446.32 456.38 458.83 451.44 461.3 445.86 463.64 431.63 467.07 423.06 468.42 417.16 469.65 410.73 470.74 403.83 471.62 396.93 472.97 389.91 474.02 382.88 474.78 375.86 475.85 368.83 476.49 361.9 476.68 355 477.03 348.22 476.8 341.65 475.97 335.13 475.18 328.86 473.71 322.93 471.57 317.09 469.39 311.65 466.5 306.7 462.96 301.89 459.35 297.64 455.08 294.05 450.2 290.67 445.28 288 439.78 286.14 433.75 284.55 427.71 283.82 421.17 284.04 414.19 284.55 407.21 285.98 400.13 288.23 393.05 290.71 385.96 293.97 378.87 297.87 371.86 301.95 364.83 306.63 357.88 311.79 351.09 317.06 344.29 322.77 337.64 328.81 331.26 334.91 324.9 341.32 318.81 347.94 313.13 354.58 307.51 361.42 302.34 368.37 297.74 375.33 293.29 382.4 289.48 389.48 286.44 396.57 283.65 403.67 281.7 410.68 280.7" opacity=".37" transform="rotate(68.68, 400, 400)"/><path stroke-dasharray="6 7" d="M406.28 291.31C418.61 290.36 429.28 292.88 437.89 298.2 446.38 304.36 452.75 312.94 456.77 323.1 460.79 333.66 462.76 345.45 462.77 357.66 463.45 369.98 462.87 382.55 461.12 394.61 460.84 406.66 459.6 416.97 457.47 425.29 456.26 433.61 453.48 440.05 449.02 444.54 444.77 449.35 438.4 452.69 430.05 454.64 421.64 457.6 411.22 459.78 399.09 461.02 386.97 463.67 374.41 464.98 362.18 464.84 350.07 465.29 338.42 463.61 327.99 459.77 317.9 455.89 309.3 449.6 302.96 441.16 297.33 432.6 294.27 421.97 294.46 409.65 295.6 397.32 299.87 384.53 306.54 371.97 313.79 359.43 323.11 347.11 333.73 335.73 344.57 324.49 356.51 314.36 368.83 306.19 381.23 298.58 393.95 293.34 406.28 291.31" opacity=".4" transform="rotate(72.72, 400, 400)"/><path stroke-dasharray="3 3" d="M401.61 301.92C412.28 301.01 421.47 303.04 428.89 307.45 436.24 312.53 441.81 319.71 445.43 328.29 449.13 337.22 451.13 347.28 451.48 357.77 452.38 368.36 452.12 379.22 450.7 389.69 450.38 400.16 449.06 409.18 446.86 416.56 445.38 423.96 442.55 429.84 438.34 434.12 434.35 438.71 428.63 442.06 421.29 444.2 413.93 447.13 404.88 449.26 394.39 450.41 383.9 452.62 373.05 453.55 362.5 453.16 352.07 453.26 342.06 451.58 333.16 448.1 324.55 444.66 317.26 439.21 311.94 431.91 307.19 424.56 304.65 415.39 304.87 404.69 305.85 393.98 309.5 382.81 315.22 371.8 321.42 360.84 329.44 350.07 338.61 340.16 348 330.41 358.38 321.68 369.09 314.68 379.88 308.15 390.93 303.67 401.61 301.92" opacity=".5" transform="rotate(76.76, 400, 400)"/><path stroke-dasharray="10 1" d="M396.86 312.52C405.9 311.67 413.7 313.26 420.02 316.82 426.31 320.88 431.15 326.73 434.42 333.8 437.79 341.14 439.78 349.49 440.38 358.27 441.43 367.14 441.41 376.31 440.29 385.22 439.95 394.13 438.62 401.91 436.45 408.37 433.43 417.52 421.86 430.11 412.94 433.96 406.57 436.75 398.83 438.77 389.94 439.8 381.04 441.61 371.89 442.21 363.03 441.64 354.26 441.47 345.9 439.8 338.5 436.66 331.35 433.6 325.34 428.89 321 422.67 317.1 416.42 315.04 408.63 315.29 399.53 316.11 390.42 319.16 380.9 323.94 371.51 329.1 362.16 335.82 353.02 343.54 344.63 351.44 336.39 360.21 329.06 369.29 323.22 378.44 317.75 387.81 314 396.86 312.52" opacity=".09" transform="rotate(80.80000000000001, 400, 400)"/><path stroke-dasharray="6 3" d="M392.25 323.13C399.7 322.36 406.16 323.55 411.44 326.33 416.73 329.46 420.87 334.05 423.78 339.67 426.79 345.5 428.71 352.19 429.48 359.31 430.57 366.5 430.73 374 429.87 381.38 429.54 388.76 428.28 395.31 426.23 400.85 423.25 408.78 412.8 420.21 405.14 423.9 399.74 426.46 393.28 428.29 385.94 429.2 378.6 430.63 371.11 430.97 363.91 430.29 356.78 429.9 350.03 428.29 344.1 425.5 338.36 422.81 333.57 418.8 330.16 413.58 327.06 408.37 325.45 401.92 325.71 394.39 326.37 386.86 328.83 378.99 332.7 371.25 336.86 363.56 342.3 356.05 348.57 349.2 355 342.48 362.16 336.52 369.6 331.81 377.09 327.38 384.8 324.34 392.25 323.13" opacity=".45" transform="rotate(84.84, 400, 400)"/><path stroke-dasharray="8 10" d="M387.99 333.74C399.79 332.72 408.63 337.58 413.59 345.98 418.86 354.91 421.05 366.58 419.45 378.34 419.19 390.1 415.45 399.64 409.2 405.96 403.41 412.83 394.21 417.43 382.56 418.59 370.91 421.08 359.18 419.59 350.01 414.72 341.33 410.14 335.91 401.45 336.12 389.49 337.41 377.52 344.16 364.71 353.78 353.95 363.85 343.6 376.18 335.92 387.99 333.74" opacity=".75" transform="rotate(88.88, 400, 400)"/><path stroke-dasharray="2 8" d="M384.26 344.34C393.03 343.45 399.82 346.79 403.86 352.75 408.12 359.01 410.09 367.44 409.04 376.23 408.72 385.02 405.58 392.48 400.55 397.68 395.79 403.21 388.64 407 379.96 407.98 371.29 409.71 362.78 408.28 356.28 404.34 350.07 400.62 346.27 393.94 346.54 385.04 347.43 376.13 352.28 366.74 359.25 358.96 366.49 351.44 375.49 345.9 384.26 344.34" opacity=".61" transform="rotate(92.92, 400, 400)"/><path stroke-dasharray="11 8" d="M381.23 354.95C392.84 353.89 400.14 363.43 398.62 375.14 398.37 386.84 389.78 396.25 378.26 397.38 366.73 399.79 356.73 393.04 356.96 381.23 358.32 369.41 369.62 357.21 381.23 354.95" opacity=".16" transform="rotate(96.96, 400, 400)"/></g></svg>