<svg xmlns="http://www.w3.org/2000/svg" version="1.1" xmlns:xlink="http://www.w3.org/1999/xlink" xmlns:svgjs="http://svgjs.dev/svgjs" viewBox="0 0 325 100"><defs><linearGradient x1="50%" y1="0%" x2="50%" y2="100%" id="ssspill-grad"><stop stop-color="hsl(162, 100%, 58%)" stop-opacity="1" offset="45%"></stop><stop stop-color="hsl(270, 73%, 53%)" stop-opacity="1" offset="100%"></stop></linearGradient></defs><rect width="100%" height="100%" fill="hsl(0, 0%, 100%)"></rect><g fill="url(#ssspill-grad)">
    <rect width="100%" height="40" fill="hsl(162, 100%, 58%)"></rect>

    <rect x="0" width="5.88%" height="89.68904358778951" rx="12"></rect>
      <rect x="11.76%" width="5.88%" height="79.5150301570672" rx="12"></rect>
      <rect x="23.53%" width="5.88%" height="95.37178758678547" rx="12"></rect>
      <rect x="35.29%" width="5.88%" height="66.00722189083558" rx="12"></rect>
      <rect x="47.06%" width="5.88%" height="85.96415922862876" rx="12"></rect>
      <rect x="58.82%" width="5.88%" height="69.49071756439979" rx="12"></rect>
      <rect x="70.59%" width="5.88%" height="64.74074603742697" rx="12"></rect>
      <rect x="82.35%" width="5.88%" height="88.96765966864123" rx="12"></rect>
      <rect x="94.12%" width="5.88%" height="96.29436661087516" rx="12"></rect>
  </g><g fill="hsl(0, 0%, 100%)">
    <rect x="5.88%" y="2.025919622258188" width="5.88%" height="60" rx="12"></rect>
      <rect x="17.65%" y="14.23449694118194" width="5.88%" height="60" rx="12"></rect>
      <rect x="29.41%" y="26.758794334281784" width="5.88%" height="60" rx="12"></rect>
      <rect x="41.18%" y="11.979214167292682" width="5.88%" height="60" rx="12"></rect>
      <rect x="52.94%" y="17.55049767005488" width="5.88%" height="60" rx="12"></rect>
      <rect x="64.71%" y="10.398168282477789" width="5.88%" height="60" rx="12"></rect>
      <rect x="76.47%" y="11.265501324321928" width="5.88%" height="60" rx="12"></rect>
      <rect x="88.24%" y="20.552327903969257" width="5.88%" height="60" rx="12"></rect>
  </g></svg>