<svg xmlns="http://www.w3.org/2000/svg" xmlns:svgjs="http://svgjs.dev/svgjs" xmlns:xlink="http://www.w3.org/1999/xlink" version="1.1" viewBox="0 0 325 100"><defs><linearGradient id="ssspill-grad" x1="50%" x2="50%" y1="0%" y2="100%"><stop offset="45%" stop-color="hsl(162, 100%, 58%)" stop-opacity="1"/><stop offset="100%" stop-color="hsl(270, 73%, 53%)" stop-opacity="1"/></linearGradient></defs><rect width="100%" height="100%" fill="hsl(0, 0%, 100%)"/><g fill="url(#ssspill-grad)"><rect width="100%" height="40" fill="hsl(162, 100%, 58%)"/><rect width="5.88%" height="89.689" x="0" rx="12"/><rect width="5.88%" height="79.515" x="11.76%" rx="12"/><rect width="5.88%" height="95.372" x="23.53%" rx="12"/><rect width="5.88%" height="66.007" x="35.29%" rx="12"/><rect width="5.88%" height="85.964" x="47.06%" rx="12"/><rect width="5.88%" height="69.491" x="58.82%" rx="12"/><rect width="5.88%" height="64.741" x="70.59%" rx="12"/><rect width="5.88%" height="88.968" x="82.35%" rx="12"/><rect width="5.88%" height="96.294" x="94.12%" rx="12"/></g><g fill="hsl(0, 0%, 100%)"><rect width="5.88%" height="60" x="5.88%" y="2.026" rx="12"/><rect width="5.88%" height="60" x="17.65%" y="14.234" rx="12"/><rect width="5.88%" height="60" x="29.41%" y="26.759" rx="12"/><rect width="5.88%" height="60" x="41.18%" y="11.979" rx="12"/><rect width="5.88%" height="60" x="52.94%" y="17.55" rx="12"/><rect width="5.88%" height="60" x="64.71%" y="10.398" rx="12"/><rect width="5.88%" height="60" x="76.47%" y="11.266" rx="12"/><rect width="5.88%" height="60" x="88.24%" y="20.552" rx="12"/></g></svg>