<svg preserveAspectRatio="none" xmlns="http://www.w3.org/2000/svg" viewBox="0 0 2000 200" width="2000" height="200">
  <defs><linearGradient x1="50%" y1="0%" x2="50%" y2="100%" id="wwwhirl-grad">
    <stop stop-color="hsl(315, 100%, 72%)" stop-opacity="1" offset="5%"></stop>
    <stop stop-color="hsl(227, 100%, 50%)" stop-opacity="1" offset="100%"></stop></linearGradient></defs>
  <g stroke-width="1" stroke="url(#wwwhirl-grad)" fill="url(#wwwhirl-grad)" stroke-linecap="round"><path d="M293 54c0.4 7.6 -1.2 13.4 0 13.6s3.4 -4 4.6 -8.4c2 -7 -0.4 -9 0.8 -16.4a21.6 21.6 0 0 1 6.4 -13c3 -2.8 8.6 -5.4 10.4 -3.8s0 6 -6 24.6a24.6 24.6 0 0 0 -1.4 7 17.2 17.2 0 0 0 0.4 5c1 3.4 2.8 4.4 4.4 7 2 3.2 0.6 4.6 1 15.6 0.2 4.8 0.8 10.2 1.4 10.2s0 -4 2 -9 5 -4.8 5.8 -8.2c0.8 -4 -2.2 -5.2 -2 -10 0.4 -3.4 2 -7.6 4.6 -8s5.4 4 5.6 7.6c0 2.4 -1.2 2.8 -1.2 5.4 0 4 3.8 7.8 5.2 7.4s-1 -11.2 2 -12.6c2 -0.8 5.8 2 7.2 5.4 1.6 4 -0.6 7 -2 12.8a43.2 43.2 0 0 0 -0.2 18.6c1.4 9.2 4.4 9.4 7.6 21 2.8 10 2.4 16.6 3.4 16.6s3 -6.8 3 -14c0 -14.6 -8 -18.6 -5.2 -27 2.2 -6.8 8 -6 11.4 -15.4 1.4 -3.6 1.6 -6.4 2 -12 0.8 -15.2 -3 -19 0.2 -24.8 2.6 -5 9 -9.4 14.8 -8 6.8 1.4 9.6 10 9.8 15.2 0 4.4 -1.2 9.4 -2.8 9.4 -2.6 0 -4.6 -13.8 -6 -13.6 -1.2 0.2 -1.4 6 -1 10.6 0.4 7 1.8 6.8 5.2 20.6 1 4 1.6 7.4 4 8s3.4 -2 5.2 -1.4 2 3.4 2.6 7.4a53.6 53.6 0 0 1 -0.4 18.4c-1.4 6.8 -3.4 10.6 -2.4 11.2 0.4 0.2 1.2 0.2 5 -3.6 7.2 -7.4 13.4 -13.4 13 -21.2 -0.2 -5.4 -3.2 -6.6 -2.4 -12.6a26.2 26.2 0 0 1 2.4 -7.6c3 -6.6 6.4 -10 6 -10.6 -1 -1 -10.4 8.8 -13.4 6.8 -2.4 -1.4 0.6 -10 2.4 -14.6 4.6 -11 11.6 -17.4 9.6 -20 -0.8 -1 -2 -0.2 -3.2 -1.6 -2.8 -2.6 -1 -10.4 3.4 -15.2 1.2 -1.2 5.6 -6 11 -4.8a9.6 9.6 0 0 1 7.2 6.6c1.6 5.6 -5 8.8 -6.4 17.4 -0.8 5 0.6 8.8 2.2 13.2 4 10.4 9.4 11.6 16.8 24.4 3 5.2 7 13.4 5.2 14.6 -2 1.6 -12 -8.2 -13 -7.2 -0.8 0.6 3.2 4 5.2 10 3.4 9 -2.4 12.6 0 22.2 2 8 6.6 8 8 16.4s-2 15 -1.2 15.2 5.4 -7.4 6.6 -17.6c1.6 -10.8 -2.2 -13 -1.2 -22 1.4 -13.4 10.6 -12.6 12.4 -25.2 2 -12.4 -6 -18.8 -1 -30.6 0.6 -1.2 2.6 -6.2 5.2 -6 2.8 0 4.6 7.4 5.2 9.6 3.4 14 -0.4 25.2 0.6 25.4s4.4 -5.2 4.4 -12.2c0 -7.6 -4 -10.2 -2.8 -16.8 0.6 -3.4 2.6 -8 5.2 -8 3.6 -0.4 8.6 8.4 10 17 2 13.2 -5.2 18 -3.4 33.2 0.8 8 3.8 15 5 14.8s-0.8 -10 2.4 -22.2c4 -15 10.8 -14.2 12.6 -25 2.4 -15.2 -10.2 -22 -6 -35.2 2.4 -6.8 8.4 -13 12 -12 4 1 2.2 11.6 6.8 27.8 4.8 17.2 14 30.2 15.8 29.6s-5.6 -12 -3.6 -28c1.6 -14 8.6 -18.8 9.6 -29l0.4 1c2.6 10 4.4 10.4 4.8 17.2 0.4 5.8 -0.8 10 0 10.2s2.6 -3 3.6 -6.2c1.4 -5.2 -0.4 -6.8 0.6 -12.4a16 16 0 0 1 4.6 -10c2.4 -2 6.6 -4 8 -2.6s0 4.4 -4.6 18.4a17.8 17.8 0 0 0 -1 5.4 13 13 0 0 0 0.2 3.6c0.8 2.8 2.2 3.4 3.4 5.4 1.4 2.4 0.4 3.4 0.8 11.8 0 3.6 0.6 7.6 1 7.6s0 -3.2 1.6 -6.6 3.8 -3.6 4.2 -6.2c0.6 -3 -1.6 -4 -1.2 -7.6 0 -2.6 1.4 -5.8 3.2 -6s4 3 4.2 5.6c0 2 -0.8 2.2 -0.8 4 0 3 2.8 6 4 5.6s-1 -8.4 1.4 -9.4c1.4 -0.6 4.4 1.4 5.4 4 1.2 3 -0.6 5.4 -1.6 9.6a32.6 32.6 0 0 0 0 14c1.2 7 3.4 7.2 5.8 16 2 7.6 1.6 12.4 2.6 12.4s2.2 -5 2.2 -10.2c0 -11.2 -6 -14.2 -4 -20.6 1.8 -5 6 -4.6 8.6 -11.6a27.6 27.6 0 0 0 1.4 -9c0.6 -11.4 -2.2 -14.2 0.2 -18.8 2 -3.6 6.8 -6.8 11.2 -6 5.2 1.2 7.2 7.8 7.4 11.6 0 3.4 -1 7 -2.2 7 -2 0 -3.4 -10.4 -4.6 -10 -0.8 0 -0.8 4.2 -0.6 7.6 0.4 5.4 1.4 5.2 4 15.6 0.6 3 1.2 5.6 2.8 6s2.6 -1.4 4 -1 1.6 2.4 2 5.6a40 40 0 0 1 -0.4 13.8c-1 5 -2.6 8 -1.8 8.4 0.4 0.2 1 0.2 4 -2.6 5.4 -5.6 10 -10 9.6 -16 0 -4 -2.4 -5.2 -1.8 -9.6a19.6 19.6 0 0 1 2 -5.6c2.4 -5.2 5 -7.6 4.4 -8 -0.6 -0.8 -7.8 6.6 -10 5.2 -1.6 -1.2 0.4 -7.8 2 -11.2 3.2 -8.2 8.6 -13 7 -15 -0.6 -0.8 -1.4 -0.2 -2.4 -1.2 -2 -2 -0.8 -8 2.6 -11.4 0.8 -1 4 -4.6 8.2 -3.8a7.2 7.2 0 0 1 5.6 5c1 4.4 -4 6.6 -4.8 13.2a18.4 18.4 0 0 0 1.6 10c3 7.8 7.2 8.8 12.6 18.4 2.4 4 5.2 10 4 11 -1.6 1.2 -9 -6.2 -10 -5.4 -0.4 0.4 2.6 3 4 7.4 2.6 7 -1.6 9.6 0 16.8 1.6 6 5 6 6 12.6s-1.4 11.2 -0.8 11.2 4 -5.6 5 -13.2c1 -8 -1.8 -9.8 -1 -16.6 1 -10 8 -9.4 9.4 -19s-4.4 -14 -0.8 -23c0.4 -1 2 -4.6 4 -4.6s3.4 5.6 4 7.4c2.4 10.6 -0.6 19 0.2 19.2s3.4 -4 3.6 -9.4c0 -5.6 -3 -7.6 -2 -12.6 0.2 -2.4 2 -6 4 -6 2.6 -0.2 6.2 6.4 7.2 13 1.8 10 -3.8 13.4 -2.6 25 0.8 6 3 11.2 4 11s-0.8 -7.6 1.6 -16.8c2.8 -11 8 -10.6 9.4 -18.8 2 -11.2 -7.6 -16.4 -4.2 -26.4 1.6 -5 6 -9.8 8.8 -9.2 3.2 1 1.6 9 5.2 21 3.6 13 10.4 22.8 12 22.4s-4.4 -9 -3 -21.2a38.6 38.6 0 0 1 5 -14 19.2 19.2 0 0 1 2.6 6.6c1.4 9.6 -4.6 16.4 -3.2 16.8s9.2 -7.8 13.2 -18c3.8 -9.6 2.2 -16 5.8 -16.6 3 -0.6 8 3 10 7.2 3.6 8 -7 12 -5 21 1.4 6.4 7.4 6 10.6 15 2.8 7.4 0.8 13.4 2 13.4s3.4 -4 4.2 -8.8c1.4 -9.2 -4.8 -12 -3 -20 1.2 -5.2 5.4 -10.4 8.4 -10.4 2 0 4 3 4.4 5 1 4 -2.4 5.4 -2.4 10s3.2 7.4 3.8 7.4 -2.4 -6.8 0.4 -15.2c0.6 -1.6 2 -6 4.6 -6 2 0 3.8 3 4 3.6 4.4 7.2 -2.2 11 -0.6 18.4s9.2 7.2 10.6 15.2c0.8 5.4 -2.4 6.6 -1.2 13.2 1.2 6 5 10.6 5.6 10.4s-2.4 -4 -1 -9 5.2 -5 6.8 -10c2 -5.6 -2.8 -7.8 0 -13.2 1.6 -3.4 5 -5.6 4.4 -6 -1 -0.8 -9.2 5.2 -11 4.2 -1.4 -0.6 1.8 -5.6 4.4 -8.8 6.2 -7.4 11 -8.2 14.2 -14.4a11.2 11.2 0 0 0 2 -8c-1.2 -5 -6.8 -6.8 -5.6 -10.4a8 8 0 0 1 6.2 -4 12.8 12.8 0 0 1 9.2 3c3.8 3 5.2 7.6 3 9.2 -1.2 0.8 -2 0.2 -2.8 1 -1.8 1.6 4.2 5.4 8 12 1.6 2.6 4 7.8 2 8.8 -2.4 1 -10.2 -4.8 -11 -4.2 -0.6 0.4 2.4 2.4 5 6.4a13 13 0 0 1 2 4.6c0.6 3.4 -1.8 4.2 -2 7.4 -0.2 4.8 4.8 8.4 11 12.8 3.2 2.2 4 2.2 4 2 1 -0.2 -0.6 -2.6 -2 -6.6a22.8 22.8 0 0 1 0 -11c0 -2.4 0.6 -4 2 -4.4s2.8 1 4.4 0.8 2.4 -2.4 3.4 -4.8c2.8 -8.2 4 -8 4.2 -12.4 0.4 -2.6 0 -6 -0.6 -6.2 -1.4 0 -3 8 -5.2 8 -1.4 0 -2.6 -2.8 -2.4 -5.4a10 10 0 0 1 8.2 -9.2 14.2 14.2 0 0 1 12.6 4.6c2.6 3.6 -0.6 6 0 15a16 16 0 0 0 1.6 7.2c3 5.6 8 5.2 9.8 9.2 2.2 5.2 -4.4 7.4 -4.4 16.4 0 4 1.4 8 2.4 8S900 82 902 76c2.6 -7 5.2 -7 6.4 -12.6a18.6 18.6 0 0 0 0 -11.2c-1.2 -3.4 -3.2 -5.2 -1.8 -7.6 1.2 -2 4.4 -3.8 6 -3.2 2.6 0.8 0 7.2 1.8 7.4 1.2 0.4 4 -2 4.2 -4.4 0 -1.4 -1 -1.6 -0.8 -3.2a5.2 5.2 0 0 1 4.6 -4.4c2 0 3.6 2.6 3.8 4.6 0.4 3 -2.2 3.6 -1.6 6s2.8 2 4.8 5 1.4 5.4 2 5.4 0.8 -3.2 1 -6c0.4 -6.8 -0.8 -7.6 0.8 -9.4 1.4 -1.6 3 -2.2 3.6 -4.4a7.4 7.4 0 0 0 0.4 -2.8 11.4 11.4 0 0 0 -1 -4.2c-5.2 -11.2 -6.6 -14 -5.2 -14.8s6.2 0.6 8.8 2.2a11.4 11.4 0 0 1 5.2 8c1.2 4.6 -0.8 5.8 0.8 10 1 2.6 3 5 4 5s-0.6 -3.6 0 -8.2c0.4 -5.4 2.4 -5.8 5.4 -13.6l1 -3.2a98.6 98.6 0 0 0 2 10.6c2.6 10 4.6 10.4 5 17 0.2 6 -1 10 0 10.4s2.4 -3 3.4 -6.4c1.4 -5.2 -0.4 -6.6 0.6 -12.4a15.8 15.8 0 0 1 4.8 -9.8c2.4 -2 6.6 -4 8 -2.8s0 4.6 -4.6 18.6a18.4 18.4 0 0 0 -1 5.2 13.6 13.6 0 0 0 0.2 3.6c0.8 2.8 2 3.4 3.4 5.4 1.4 2.4 0.4 3.4 0.8 11.8 0 3.6 0.4 7.6 1 7.6s0 -3.2 1.6 -6.6 3.8 -3.6 4.2 -6.4c0.6 -2.8 -1.6 -3.8 -1.4 -7.4 0.2 -2.6 1.6 -5.8 3.6 -6s3.8 2.6 3.8 5.4c0 2 -1 2.2 -0.8 4 0 3 2.6 6 3.8 5.6s-0.8 -8.4 1.4 -9.4c1.4 -0.6 4.4 1.4 5.4 4 1.2 3 -0.4 5.4 -1.6 9.6a33 33 0 0 0 0 14c1 7 3.4 7.2 5.8 16 2 7.4 1.6 12.4 2.6 12.4s2 -5 2 -10.4c0 -11.2 -6 -14 -3.8 -20.4 1.8 -5 6 -4.6 8.6 -11.6a26.8 26.8 0 0 0 1.4 -9c0.6 -11.4 -2 -14.4 0.2 -18.8 2 -3.6 7 -7 11.2 -6 5.2 1.2 7.2 7.6 7.4 11.6 0 3.2 -1 7 -2 7 -2 0 -3.4 -10.4 -4.6 -10.2 -0.8 0 -1 4.4 -0.6 8 0.2 5.2 1.2 5 3.8 15.4 0.8 2.8 1.4 5.6 3 6s2.6 -1.4 4 -1 1.6 2.4 2 5.4a40 40 0 0 1 -0.4 14c-1 5 -2.6 8 -1.6 8.4 0 0 0.8 0 3.6 -2.8 5.6 -5.4 10 -10 10 -16 -0.2 -4 -2.6 -5 -2 -9.4a19.6 19.6 0 0 1 2 -5.6c2.4 -5.2 5 -7.6 4.6 -8s-8 6.6 -10 5c-1.8 -1 0.4 -7.6 1.6 -11 3.6 -8.2 8.8 -13 7.4 -15 -0.6 -0.8 -1.6 -0.2 -2.4 -1.2 -2.2 -2 -0.8 -8 2.4 -11.4 1 -1 4.2 -4.6 8.4 -3.8a7.4 7.4 0 0 1 5.4 5c1.2 4.4 -3.8 6.6 -4.8 13.2a18.6 18.6 0 0 0 1.8 10c2.8 8 7 8.8 12.6 18.4 2.2 4 5 10 4 11 -1.8 1.2 -9 -6.2 -10 -5.4 -0.4 0.4 2.4 3 4 7.4 2.6 7 -2 9.6 0 17 1.4 6 4.8 6 6 12.4s-1.6 11.2 -1 11.2 4 -5.6 5 -13.2c1.2 -8 -1.8 -10 -1 -16.6 1.2 -10 8 -9.4 9.4 -19s-4.4 -14 -0.6 -23c0.4 -1 2 -4.6 3.8 -4.6 2 0 3.4 5.6 4 7.4 2.6 10.4 -0.4 18.8 0.4 19s3.2 -4 3.2 -9.2c0 -5.6 -3 -7.6 -2 -12.6 0.4 -2.6 2 -6 4 -6 2.8 -0.4 6.4 6.4 7.4 12.8 1.6 10 -4 13.6 -2.6 25 0.6 6 2.8 11.2 3.8 11s-0.6 -7.4 1.8 -16.6c2.8 -11.2 8 -10.8 9.4 -18.8 2 -11.4 -7.6 -16.6 -4.4 -26.6 1.8 -5 6.2 -9.8 9 -9 3.2 0.8 1.6 8.8 5 20.8a72.4 72.4 0 0 0 5.2 13.4V30l0.4 1.6c3.6 13.2 6 14 6.6 22.6 0.6 7.8 -1 13.4 0 13.8s3.4 -4 4.6 -8.4c2 -7 -0.4 -9 0.8 -16.4A21.6 21.6 0 0 1 1162 30c3 -2.6 8.6 -5.2 10.4 -3.6s0 6 -6 24.6a23.2 23.2 0 0 0 -1.4 7 17.2 17.2 0 0 0 0.4 4.8c1 3.6 2.8 4.6 4.4 7.2 2 3.2 0.6 4.6 1.2 15.6 0 4.8 0.6 10.2 1.2 10.2s0 -4.2 2.2 -9 4.8 -4.8 5.6 -8.2c0.8 -4 -2.2 -5.2 -2 -10 0.4 -3.4 2 -7.6 4.6 -8s5.6 4 5.6 7.6c0 2.4 -1.2 2.8 -1 5.2 0 4 3.6 8 5 7.4s-1 -11 2 -12.4c2 -0.8 5.8 2 7.2 5.4 1.6 4 -0.6 7 -2 12.8a43.2 43.2 0 0 0 0 18.6c1.4 9.2 4.4 9.4 7.6 21 2.6 10 2.4 16.4 3.4 16.6s3 -6.8 3 -14c0 -14.6 -8 -18.6 -5.2 -27 2 -6.8 8 -6 11.4 -15.4a37.2 37.2 0 0 0 2 -12c0.6 -15.2 -3.2 -19 0 -25 2.8 -4.8 9.2 -9.2 15 -8 6.8 1.6 9.4 10.2 9.8 15.4 0 4.4 -1.4 9.4 -2.8 9.4 -2.8 0 -4.6 -13.8 -6.2 -13.6 -1 0.2 -1.2 6 -0.8 10.6 0.4 7 1.8 6.8 5 20.6 1 4 1.8 7.4 4 8s3.4 -2 5.2 -1.4 2.2 3.2 2.6 7.4a53 53 0 0 1 -0.4 18.4c-1.4 6.8 -3.4 10.6 -2.4 11.2 0.4 0.2 1.2 0.2 5 -3.6 7.4 -7.4 13.4 -13.4 13 -21.2 0 -5.4 -3.2 -6.6 -2.4 -12.6a26.2 26.2 0 0 1 2 -7.8c3 -6.6 6.4 -10 6 -10.6 -1 -1 -10.4 8.8 -13.4 6.8 -2.4 -1.4 0.6 -10 2.4 -14.6 4.6 -11 11.6 -17.4 9.6 -20 -0.8 -1 -2 -0.2 -3.2 -1.6 -2.8 -2.6 -1 -10.4 3.4 -15.2 1.2 -1.2 5.6 -6 11 -4.8a9.6 9.6 0 0 1 7.2 6.6c1.6 5.6 -5 8.8 -6.4 17.4 -0.8 5 0.8 8.8 2.2 13.2 4 10.4 9.6 11.6 16.8 24.4 3 5.2 7 13.4 5.2 14.6 -2 1.6 -12 -8.2 -13 -7.2 -0.6 0.6 3.2 4 5.4 10 3.2 9 -2.6 12.6 -0.2 22.2 2 8 6.6 8 8 16.4s-2 15 -1.2 15.2 5.2 -7.4 6.6 -17.6c1.4 -10.8 -2.4 -13 -1.4 -22 1.6 -13.4 10.8 -12.6 12.8 -25.2 2 -12.4 -6 -18.8 -1 -30.6 0.6 -1.2 2.6 -6 5 -6 3 0 4.8 7.4 5.4 9.8 3.4 14 -0.6 25 0.4 25.4s4.6 -5.4 4.6 -12.4c0 -7.6 -4 -10 -2.8 -16.8 0.6 -3.4 2.6 -8 5.2 -8 3.6 -0.4 8.4 8.4 10 17 2 13.4 -5.2 18 -3.4 33.2 0.8 8 3.6 15 5 14.8s-0.8 -10 2.4 -22.2c3.8 -14.8 10.8 -14.2 12.4 -25 2.4 -15.2 -10.2 -22 -5.8 -35.2 2.2 -6.8 8.2 -13 11.8 -12 4 1 2.4 11.6 6.8 27.8 4.8 17.2 14 30.2 15.8 29.6s-5.4 -12 -3.6 -28c1.6 -14 8.6 -18.8 9.8 -29l0.2 1c2.6 10 4.6 10.4 5 17.2 0.4 5.8 -0.8 10 0 10.2s2.4 -3 3.4 -6.2c1.4 -5.2 -0.4 -6.8 0.6 -12.4a15.6 15.6 0 0 1 4.8 -10c2.4 -2 6.4 -4 8 -2.8s0 4.4 -4.8 18.4a18.4 18.4 0 0 0 -0.8 5.4 13.6 13.6 0 0 0 0.2 3.6c0.8 2.8 2 3.4 3.2 5.4 1.6 2.4 0.6 3.4 1 11.8 0 3.6 0.4 7.6 0.8 7.6s0 -3.2 1.8 -6.6 3.6 -3.6 4.2 -6.2c0.6 -3 -1.8 -4 -1.4 -7.6 0.2 -2.6 1.6 -5.8 3.4 -6s4 3 4.2 5.6c0 2 -0.8 2.2 -0.8 4 0 3.2 2.8 6 4 5.6s-1 -8.4 1.4 -9.4c1.4 -0.6 4.2 1.4 5.4 4 1.2 3 -0.6 5.4 -1.6 9.6a32.6 32.6 0 0 0 -0.2 14c1.2 7 3.4 7.2 5.8 16 2 7.6 1.8 12.4 2.6 12.4s2.2 -5 2.2 -10.2c0 -11.2 -6 -14.2 -4 -20.6 2 -5 6 -4.6 8.8 -11.6a26.6 26.6 0 0 0 1.4 -9c0.6 -11.4 -2.2 -14.2 0 -18.8 2 -3.6 7 -6.8 11.2 -6 5.2 1.2 7.2 7.8 7.4 11.6 0.2 3.4 -0.8 7 -2 7 -2 0 -3.4 -10.4 -4.6 -10 -0.8 0 -1 4.2 -0.8 7.6 0.4 5.4 1.4 5.2 4 15.6 0.8 3 1.4 5.6 3 6s2.6 -1.4 4 -1 1.8 2.4 2 5.6a40 40 0 0 1 -0.2 13.8c-1.2 5 -2.6 8 -2 8.4 0.4 0.2 1.2 0.2 4 -2.6 5.4 -5.6 10 -10 9.8 -16 -0.2 -4 -2.4 -5 -1.8 -9.6a19.6 19.6 0 0 1 2 -5.6c2.4 -5 4.8 -7.6 4.4 -8 -0.6 -0.8 -7.8 6.6 -10 5.2 -1.6 -1.2 0.4 -7.8 1.8 -11.2 3.4 -8.2 8.8 -13 7.2 -15 -0.6 -0.8 -1.4 -0.2 -2.4 -1.2 -2 -2 -0.8 -8 2.6 -11.4 0.8 -1 4 -4.6 8.2 -3.8a7.4 7.4 0 0 1 5.4 5c1.2 4.4 -3.8 6.6 -4.8 13.2a18.8 18.8 0 0 0 1.8 10c2.8 7.8 7 8.8 12.6 18.4 2.2 4 5.2 10 4 11 -1.8 1.2 -9 -6.2 -10 -5.4 -0.4 0.4 2.6 3 4 7.4 2.6 7 -1.8 9.6 0 17 1.4 6 5 6 6 12.4s-1.4 11.2 -1 11.2 4 -5.6 5.2 -13.2c1 -8 -2 -9.8 -1.2 -16.4 1.2 -10.2 8 -9.6 9.6 -19.2s-4.6 -14 -0.8 -23c0.4 -0.8 2 -4.6 3.8 -4.6 2 0 3.6 5.6 4 7.4 2.6 10.6 -0.4 19 0.4 19.2s3.4 -4 3.4 -9.4c0 -5.6 -3 -7.6 -2 -12.6 0.4 -2.4 2 -6 4 -6 2.6 -0.2 6.4 6.4 7.4 13 1.6 10 -4 13.4 -2.6 25 0.6 6 2.8 11.2 3.8 11s-0.6 -7.6 1.6 -16.8c3 -11 8.2 -10.6 9.6 -18.8 1.8 -11.2 -7.8 -16.4 -4.4 -26.4 1.8 -5 6 -9.8 8.8 -9.2 3.2 1 1.8 9 5.2 21 3.6 13 10.6 22.8 12 22.4s-4 -9 -2.8 -21.2a38.6 38.6 0 0 1 5 -14 19.6 19.6 0 0 1 2.6 6.6c1.4 9.6 -4.6 16.4 -3.2 16.8s9.4 -7.4 13.4 -17.8c3.8 -9.6 2 -16 5.6 -16.6 3 -0.6 8 3.2 10 7.2 3.8 8 -6.8 12 -4.8 21.2 1.6 6.4 7.4 6 10.6 14.8 2.8 7.4 0.8 13.4 2 13.4s3.6 -4 4.2 -8.8c1.4 -9 -4.6 -12 -2.8 -20 1.2 -5.2 5.2 -10.4 8.4 -10.2 2 0 3.8 2.8 4.2 4.8 1 4 -2.4 5.6 -2.4 10s3.2 7.6 4 7.4 -2.6 -6.8 0.4 -15.2c0.4 -1.4 2 -5.8 4.4 -6 2 0 3.8 3 4.2 3.8 4.2 7 -2.4 11 -0.8 18.4s9.4 7 10.6 15c0.8 5.4 -2.4 6.8 -1.2 13.2 1.2 6 5 10.8 5.6 10.6s-2.2 -4 -1 -9 5.2 -5.2 6.8 -10c2 -5.8 -2.8 -8 0 -13.4 1.6 -3.4 5 -5.4 4.4 -6 -1 -0.6 -9.2 5.4 -11 4.4 -1.4 -0.8 1.8 -5.6 4.4 -8.8 6.2 -7.6 11 -8.4 14 -14.6 1.4 -2.6 2.6 -5 2 -8 -1.2 -5 -6.8 -7 -5.4 -10.4a8 8 0 0 1 6 -4 13 13 0 0 1 9.4 3c3.6 2.8 5 7.4 2.8 9.2 -1.2 0.6 -2 0.2 -2.8 0.8 -1.6 1.6 4.2 5.4 8 12 1.8 2.6 4 8 2 8.8 -2.4 1.2 -10.2 -4.6 -11 -4 -0.6 0.2 2.4 2.2 5 6.2a12.4 12.4 0 0 1 2 4.6c0.6 3.6 -2 4.4 -2 7.6 -0.4 4.6 4.8 8.2 10.8 12.6 3.2 2.4 4 2.4 4.2 2.2 1 -0.4 -0.8 -2.6 -2 -6.8a22.6 22.6 0 0 1 -0.2 -11c0.2 -2.4 0.8 -4 2 -4.4s2.8 1 4.6 0.8 2.4 -2.4 3.2 -4.8c2.8 -8 4 -8 4.4 -12.2 0.2 -2.8 0 -6.2 -0.8 -6.4 -1.2 0 -3 8.2 -5.2 8.2 -1.2 0 -2.4 -3 -2.2 -5.6a10 10 0 0 1 8 -9.2 14.2 14.2 0 0 1 12.6 4.8c2.8 3.6 -0.4 5.8 0.2 14.8a16 16 0 0 0 1.2 7.4c3 5.6 7.8 5.2 9.6 9.2 2.4 5.2 -4.4 7.4 -4.4 16.4 0 4.2 1.6 8.2 2.6 8.2s0.6 -4 2.8 -10c2.8 -6.8 5.2 -7 6.6 -12.6a18.6 18.6 0 0 0 0 -11.2c-1.4 -3.4 -3.2 -5.2 -2 -7.6 1.4 -2 4.6 -3.6 6 -3.2 2.8 0.8 0.2 7.2 2 7.4 1.2 0.4 4 -2 4 -4.4 0 -1.4 -0.8 -1.6 -0.8 -3.2a5.2 5.2 0 0 1 4.8 -4.4c2 0 3.6 2.6 3.8 4.8 0.2 2.8 -2.2 3.6 -1.6 6s2.8 2 4.8 4.8 1.4 5.4 1.8 5.4 0.8 -3.2 1 -6c0.4 -6.6 -0.6 -7.4 1 -9.4 1.2 -1.6 2.8 -2 3.6 -4.2a7 7 0 0 0 0.4 -3 11 11 0 0 0 -1 -4.2c-5.2 -11.2 -6.6 -14 -5.2 -14.8s6 0.6 8.8 2.2a11.6 11.6 0 0 1 5.2 8c1 4.6 -1 5.8 0.6 10 1.2 2.6 3.2 5.2 4 5s-0.4 -3.6 0 -8.2c0.4 -5.2 2.6 -5.6 5.4 -13.6l1.2 -3a98.6 98.6 0 0 0 2 10.4c2.6 10 4.4 10.4 4.8 17 0.4 6 -0.8 10.2 0 10.4s2.6 -3 3.6 -6.2c1.4 -5.2 -0.4 -6.8 0.6 -12.4a15.6 15.6 0 0 1 4.6 -10c2.4 -2 6.6 -4 8 -2.8s0 4.6 -4.6 18.6a19.2 19.2 0 0 0 -1 5.2 13.6 13.6 0 0 0 0.4 3.6c0.6 2.8 2 3.4 3.2 5.4 1.4 2.4 0.6 3.4 1 11.8 0 3.6 0.4 7.8 0.8 7.8s0 -3.2 1.8 -6.8 3.6 -3.6 4 -6.2c0.8 -3 -1.6 -4 -1.2 -7.6 0.2 -2.6 1.6 -5.8 3.4 -6s4 2.8 4 5.4c0 2 -1 2.4 -1 4 0 3.2 2.8 6 4 5.6s-0.8 -8.4 1.6 -9.4c1.4 -0.6 4.2 1.4 5.2 4 1.4 3 -0.4 5.4 -1.6 9.6a33 33 0 0 0 0 14c1.2 7 3.6 7.2 6 16 2 7.6 1.6 12.4 2.6 12.4s2 -5 2 -10.2c0 -11.2 -6 -14.2 -4 -20.6 2 -5 6 -4.6 8.8 -11.6a26.8 26.8 0 0 0 1.2 -9c0.8 -11.4 -2 -14.2 0.2 -18.8 2 -3.6 7 -6.8 11.2 -6 5.2 1.2 7.2 7.8 7.4 11.6 0 3.2 -1 7 -2 7 -2 0 -3.6 -10.4 -4.8 -10 -0.6 0 -0.8 4.2 -0.6 7.6 0.4 5.4 1.4 5.2 4 15.6 0.8 3 1.4 5.6 3 6s2.6 -1.4 4 -1 1.6 2.4 2 5.6a40.4 40.4 0 0 1 -0.4 13.8c-1.2 5 -2.6 8 -1.8 8.4 0.2 0 1 0.2 3.8 -2.6 5.4 -5.6 10 -10 9.8 -16 0 -4 -2.4 -5.2 -1.8 -9.6a19.6 19.6 0 0 1 2 -5.6c2.2 -5.2 4.8 -7.6 4.4 -8s-8 6.6 -10 5.2c-1.8 -1.2 0.4 -7.8 1.8 -11.2 3.4 -8.2 8.8 -13 7.2 -15 -0.6 -0.8 -1.6 -0.2 -2.4 -1.2 -2 -2 -0.8 -7.8 2.4 -11.4 1 -1 4.2 -4.6 8.4 -3.8a7.4 7.4 0 0 1 5.4 5.2c1.2 4.2 -3.8 6.6 -4.8 13a18.4 18.4 0 0 0 1.8 10c2.8 8 7 8.8 12.6 18.4 2.2 4 5.2 10 4 11 -1.8 1.2 -9 -6.2 -10 -5.4 -0.4 0.6 2.6 3.2 4 7.4 2.6 7 -2 9.6 0 17 1.4 6 5 6 6 12.4s-1.4 11.2 -0.8 11.4 4 -5.8 5 -13.4c1 -8 -2 -9.8 -1 -16.4 1 -10.2 8 -9.6 9.4 -19.2s-4.4 -14 -0.8 -23c0.4 -0.8 2 -4.6 4 -4.6 2 0.2 3.4 5.6 4 7.4 2.4 10.6 -0.6 19 0.2 19.2s3.4 -4 3.4 -9.4c0 -5.6 -3 -7.6 -2 -12.6 0.4 -2.4 2 -6 4 -6 2.6 -0.2 6.4 6.4 7.4 12.8 1.6 10 -4 13.6 -2.6 25 0.6 6 2.8 11.2 3.8 11.2s-0.6 -7.6 1.6 -16.8c3 -11.2 8.2 -10.6 9.6 -18.8 1.8 -11.4 -7.6 -16.4 -4.4 -26.4 1.8 -5.2 6 -10 8.8 -9.2 3.2 0.8 1.8 8.8 5.2 21a71 71 0 0 0 5.2 13.2V0.4H282V12c2.6 5.6 1.6 8.6 4.4 19.4 3.4 13.2 6 14 6.6 22.6z"/><path d="M0 74.4c3.4 2.2 4 2.2 4.4 2 0.8 -0.2 -0.8 -2.6 -2 -6.6a22.6 22.6 0 0 1 -0.4 -11c0.4 -2.4 0.8 -4 2.2 -4.4s2.8 1 4.4 0.8 2.4 -2.4 3.4 -4.8c2.8 -8.2 4 -8 4.4 -12.4 0.2 -2.6 0 -6 -0.8 -6.2 -1.4 0 -3 8.2 -5.2 8.2 -1.4 0 -2.6 -3 -2.4 -5.6a10 10 0 0 1 8.2 -9.2 14.4 14.4 0 0 1 12.4 4.6c2.8 3.6 -0.4 6 0.4 15a16 16 0 0 0 1.6 7.2c2.8 5.6 7.6 5.2 9.6 9.2 2.2 5.2 -4.4 7.4 -4.4 16.4 0 4.2 1.4 8.2 2.4 8.2s0.6 -4 3 -10c2.6 -6.8 5.2 -7 6.4 -12.6a18.4 18.4 0 0 0 0 -11.2c-1.2 -3.4 -3.2 -5.2 -1.8 -7.6 1.2 -2 4.4 -3.8 6 -3.2 2.6 0.8 0 7.2 1.8 7.4 1.2 0.2 4 -2 4.2 -4.4 0 -1.4 -1 -1.8 -0.8 -3.2a5 5 0 0 1 4.6 -4.4c2 0 3.6 2.6 3.8 4.6 0.4 3 -2 3.6 -1.6 6s2.8 2 4.8 5 1.4 5.4 2 5.4 0.8 -3.2 1 -6.2c0.4 -6.6 -0.8 -7.4 0.8 -9.2 1.4 -1.6 3 -2.2 3.8 -4.4a8 8 0 0 0 0.2 -3 10.8 10.8 0 0 0 -1 -4C70 19.4 68.8 16.6 70 16s6.2 0.6 8.8 2.2a11.4 11.4 0 0 1 5.2 8c1.2 4.6 -0.8 5.8 0.8 10 1 2.6 3 5 4 5s-0.6 -3.6 0 -8.2c0.4 -5.4 2.6 -5.6 5.4 -13.6l1 -3.2a98.6 98.6 0 0 0 2 10.6c2.6 10 4.6 10.4 5 17 0.4 6 -1 10.2 0 10.4s2.6 -3 3.4 -6.2c1.4 -5.4 -0.4 -6.8 0.6 -12.6a16 16 0 0 1 4.8 -9.8c2.4 -2 6.6 -4 8 -2.8s0 4.6 -4.6 18.6a19.2 19.2 0 0 0 -1 5.2 14 14 0 0 0 0.2 3.6c0.8 2.8 2.2 3.4 3.4 5.4 1.4 2.4 0.4 3.4 0.8 11.8 0 3.6 0.4 7.6 1 7.6s0 -3.2 1.6 -6.6 3.8 -3.6 4.2 -6.4 -1.8 -3.8 -1.4 -7.4c0.2 -2.6 1.6 -5.8 3.6 -6s3.8 2.6 3.8 5.4c0 1.8 -1 2.2 -0.8 4 0 3 2.6 6 4 5.6s-1 -8.6 1.4 -9.4c1.4 -0.6 4.2 1.4 5.4 4 1.2 3 -0.6 5.4 -1.6 9.6a32.6 32.6 0 0 0 0 14c1 7 3.4 7 5.8 16 2 7.4 1.6 12.4 2.6 12.4s2.2 -5.2 2.2 -10.4c0 -11.2 -6 -14 -4 -20.4 1.6 -5.2 6 -4.6 8.6 -11.8a27 27 0 0 0 1.4 -9c0.6 -11.4 -2.2 -14 0 -18.6 2 -3.8 7 -7 11.4 -6 5 1.2 7 7.6 7.2 11.6 0.2 3.2 -0.8 7 -2 7 -2 0 -3.4 -10.4 -4.6 -10.2 -0.8 0 -1 4.4 -0.6 7.8 0.2 5.4 1.2 5.2 4 15.6 0.6 2.8 1.2 5.6 2.8 6s2.6 -1.4 4 -1 1.8 2.4 2 5.4a40.4 40.4 0 0 1 -0.2 14c-1.2 5 -2.6 8 -2 8.4 0.4 0 1.2 0 4 -2.8 5.4 -5.4 10 -10 9.8 -16 -0.2 -4 -2.4 -5 -1.8 -9.4a19 19 0 0 1 2 -5.8c2.2 -5 4.8 -7.4 4.4 -8s-8 6.6 -10 5.2c-1.8 -1.2 0.4 -7.6 1.6 -11 3.6 -8.2 8.8 -13 7.4 -15 -0.6 -0.8 -1.6 -0.4 -2.4 -1.2 -2.2 -2 -0.8 -8 2.4 -11.4 1 -1 4.2 -4.6 8.4 -4a7.4 7.4 0 0 1 5.4 5.2c1.2 4.4 -3.8 6.6 -4.8 13.2a18.4 18.4 0 0 0 1.8 10c2.8 7.8 7 8.6 12.6 18.2 2.2 4 5 10.2 4 11.2 -1.8 1.2 -9.2 -6.4 -10 -5.6 -0.6 0.6 2.4 3.2 4 7.4 2.6 7 -2 9.6 0 17 1.6 6 5 6 6 12.4s-1.4 11.2 -0.8 11.4 4 -5.6 5 -13.4c1 -8 -2 -9.8 -1 -16.4 1 -10 8 -9.6 9.4 -19s-4.4 -14.2 -0.8 -23.2c0.4 -0.8 2 -4.6 4 -4.4 2 0 3.4 5.4 4 7.2 2.4 10.6 -0.6 19 0.2 19.2s3.4 -4 3.4 -9.4c0 -5.6 -3 -7.6 -2 -12.6 0.4 -2.4 2 -6 4 -6 2.6 -0.2 6.4 6.4 7.4 12.8 1.6 10 -4 13.6 -2.6 25.2 0.6 6 2.8 11.2 3.8 11s-0.6 -7.6 1.6 -16.8c3 -11.2 8.2 -10.6 9.6 -18.8 1.8 -11.4 -7.6 -16.4 -4.4 -26.4 1.8 -5.2 6 -10 8.8 -9.2 3.2 0.8 1.8 8.8 5.2 21a70 70 0 0 0 5.2 13.2V0.4H-0.2V74z"/></g></svg>