<svg xmlns="http://www.w3.org/2000/svg" xmlns:svgjs="http://svgjs.dev/svgjs" xmlns:xlink="http://www.w3.org/1999/xlink" opacity=".82" version="1.1" viewBox="0 0 800 800"><defs><linearGradient id="wwwhirl-grad" x1="50%" x2="50%" y1="0%" y2="100%"><stop offset="45%" stop-color="hsl(227, 100%, 50%)" stop-opacity="1"/><stop offset="100%" stop-color="hsl(315, 100%, 72%)" stop-opacity="1"/></linearGradient></defs><g fill="none" stroke="url(#wwwhirl-grad)" stroke-linecap="round" stroke-width="1"><path d="M12.25000268936165 425.8466491284883C26.937503096840686 407.5607111211769 53.37500383030297 334.76945910171077 82.75000464526104 338.0741466933936C112.12500546021911 341.3788342850763 123.87500578620234 441.2685245563413 153.2500066011604 441.70914956856564C182.62500741611848 442.14977458079 194.37500774210173 345.6969594048752 223.7500085570598 340.18914675207054C253.12500937201787 334.6813340992659 264.8750096980011 413.5091487862059 294.2500105129592 415.2716488351034C323.62501132791726 417.03414888400084 335.37501165390046 343.5819593461982 364.75001246885853 348.6491469867785C394.12501328381666 353.7163346273587 405.8750136097999 433.8660243509719 435.2500144247579 439.59414950988867C464.62501523971605 445.3222746688055 476.3750155656993 371.5175851212233 505.75001638065737 376.14414774957925C535.1250171956153 380.77071037793513 546.8750175215986 467.08915027268944 576.2500183365566 461.80165012599696C605.6250191515148 456.51414997930453 617.3750194774981 360.6782098205038 646.7500202924562 350.76414704545545C676.1250211074142 340.8500842704071 687.8750214333975 409.3672736712968 717.2500222483555 414.21414880576486C746.6250230633135 419.061023940233 773.0625237967757 382.40102292316527 787.7500242042548 374.0291476909022" transform="rotate(99, 400, 400)"/><path d="M24.000002607865838 425.06341698992526C38.24242724542127 407.33159831616877 63.87879159302105 336.746141812444 92.36364086813191 339.950687355894C120.84849014324277 343.15523289934396 132.2424298532871 440.0179628593585 160.72727912839798 440.4452355984851C189.21212840350884 440.87250833761175 200.6060681135532 347.34250574278525 229.09091738866402 342.001596503702C257.57576666377486 336.6606872646187 268.9697063738193 413.09978029437866 297.4545556489301 414.8088712508853C325.939404924041 416.517962207392 337.33334463408534 345.2915965949773 365.81819390919617 350.20523309493393C394.303043184307 355.11886959489055 405.6969828943514 432.8397808420305 434.18183216946227 438.3943264506771C462.6666814445731 443.9488720593238 474.0606211546175 372.3806882556077 502.5454704297283 376.8670520164377C531.0303197048391 381.3534157772676 542.4242594148834 465.0561453721809 570.9091086899944 459.92887250266097C599.3939579651053 454.801599633141 610.7878976751496 361.86977887309183 639.2727469502605 352.2561422427419C667.7575962253713 342.642505612392 679.1515359354157 409.08341654658807 707.6363852105266 413.78341667698135C736.1212344856374 418.4834168073746 761.757598833237 382.9343249120363 776.0000234707926 374.8161428686297" transform="rotate(96, 400, 400)"/><path d="M35.75000252637004 424.28015814848135C49.54735139400185 407.1024588082797 74.38257935573915 338.7227978202964 101.9772770910028 341.8272013155136C129.57197482626646 344.93160481073073 140.6098539203719 438.7673744594948 168.20455165563553 439.18129492552373C195.79924939089918 439.5952153915527 206.83712848500465 348.9880253778145 234.4318262202683 343.8140195524526C262.02652395553196 338.6400137270906 273.06440304963746 412.6903850996706 300.6591007849011 414.3460669637864C328.2537985201647 416.00174882790225 339.29167761427016 347.0012071408755 366.8863753495338 351.76129250020847C394.48107308479746 356.5213778595415 405.5189521789029 431.8135106302083 433.11364991416656 437.19447668858476C460.7083476494302 442.57544274696113 471.74622674353566 373.24376468711125 499.34092447879937 377.5899295804153C526.935622214063 381.9360944737193 537.9735013081684 463.0231137687915 565.5681990434321 458.05606817644406C593.1628967786957 453.0890225840966 604.2007758728012 363.06132122279894 631.7954736080649 353.7481107371475C659.3901713433286 344.434900251496 670.428050437434 408.7995327189984 698.0227481726976 413.35265784531697C725.6174459079612 417.90578297163546 750.4526738696984 383.46760019802645 764.2500227373303 375.60311134347626" transform="rotate(93, 400, 400)"/><path d="M47.50000244487423 423.49692982461556C60.85227554258245 406.87334981796886 84.88636711845724 340.69948434572694 111.59091331387367 343.7037457927113C138.29545950929008 346.70800723969563 148.97727798745666 437.5168165772092 175.6818241828731 437.9173847701405C202.3863703782895 438.3179529630717 213.06818885645612 350.63357553042187 239.77273505187253 345.6264731187813C266.47728124728894 340.6193707071407 277.1590997254556 412.2810204225407 303.863645920872 413.88329319426566C330.5681921162884 415.48556596599065 341.250010594455 348.71084820435186 367.9545567898714 353.3173824230612C394.65910298528786 357.9239166417706 405.34092146345444 430.7872709359643 432.04546765887085 435.99465744407047C458.75001385428726 441.2020439521767 469.4318323324539 374.1068716361929 496.1363785278702 378.312837661971C522.8409247232867 382.5188036877491 533.5227432014533 460.9901126829803 560.2272893968698 456.1832943678053C586.9318355922862 451.3764760526303 597.6136540704528 364.2528940900842 624.3182002658692 355.2401097491312C651.0227464612857 346.22732540817816 661.7045649394522 408.515679408987 688.4091111348686 412.9219295312307C715.113657330285 417.3281796534744 739.1477489061598 384.0009060015947 752.500022003868 376.390110335901" transform="rotate(90, 400, 400)"/><path d="M59.25000236337843 422.71372057423616C72.15719969116303 406.6442599011443 95.39015488117533 342.6761899446438 121.20454953674454 345.58030934339536C147.01894419231377 348.48442874214686 157.34470205454147 436.26627776841 183.15909671011065 436.65349368824354C208.97349136567988 437.04070960807707 219.29924922790758 352.27914475651556 245.11364388347678 347.43894575859633C270.92803853904604 342.5987467606771 281.25379640127375 411.8716748188971 307.0681910568429 413.4205384982312C332.88258571241215 414.96940217756537 343.2083435746398 350.42050834131453 369.02273823020903 354.87349141940024C394.83713288577826 359.32647449748595 405.1628907480059 429.76105031520655 430.9772854035752 434.79485727304257C456.79168005914437 439.82866423087853 467.1174379213721 374.96999765876086 492.9318325769413 379.03576481701305C518.7462272325104 383.1015319752652 529.0719850947382 458.9571306706553 554.8863797503075 454.3105396326529C580.7007744058766 449.66394859465044 591.0265322681043 365.44448603085584 616.8409269236736 356.7321278346012C642.6553215792429 348.01976963834665 652.9810794414705 408.2318451724618 678.7954740970397 412.49122029063074C704.6098687526088 416.75059540879965 727.8428239426211 384.5342308786493 740.7500212704058 377.17712840181207" transform="rotate(87, 400, 400)"/><path d="M71.00000228188262 421.930457918095C83.46212383974361 406.41511657855807 105.89394264389342 344.6528421377989 130.81818575961543 347.45681948831765C155.74242887533742 350.26079683883637 165.71212612162623 435.01568555384904 190.63636923734822 435.3895492005849C215.5606123530702 435.7634128473207 225.53030959935904 353.9246605768475 250.45455271508106 349.25136499264966C275.378795830803 344.57806940845177 285.3484930770919 411.46227580949176 310.2727361928139 412.95773039643507C335.19697930853584 414.4531849833784 345.1666765548246 352.13011507251554 370.09091967054667 356.42954700997757C395.01516278626866 360.7289789474396 404.9848600325575 428.7347762886871 429.9091031482795 433.5950036962529C454.8333462640014 438.4552311038187 464.80304351029025 375.83307027556714 489.7272866260123 379.75863856629337C514.6515297417342 383.6842068570196 524.621226988023 456.9240952525687 549.5454701037451 452.43773149173876C574.4697132194672 447.95136773090877 584.4394104657559 366.63602456586574 609.3636535814779 358.2240925143096C634.2878966972 349.81216046275335 644.2575939434888 407.94795753017496 669.1818370592107 412.0604576442691C694.1060801749326 416.1729577583632 716.5378989790825 385.0675023499422 729.0000205369435 377.96409306196136" transform="rotate(84, 400, 400)"/><path d="M82.7500022003868 421.1472715558991C94.7670479883242 406.1860495499171 116.39773040661152 346.6295706248994 140.4318219824863 349.33340592718525C164.46591355836108 352.0372412294712 174.07955018871098 433.7651696332334 198.1136417645858 434.12568100687156C222.14773334046058 434.48619238050964 231.7613699708105 355.5702526911248 255.7954615466853 351.0638605206483C279.82955312256007 346.55746835017175 289.44318975291003 411.05295309403175 313.4772813287848 412.4949985885842C337.5113729046596 413.9370440831367 347.1250095350095 353.8397980976618 371.15910111088425 357.9856788945002C395.19319268675906 362.1315596913386 404.806829317109 427.70857855611297 428.8409208929838 432.3952264134085C452.87501246885853 437.08187427070413 462.4886490992085 376.69621918631873 486.52274067508324 380.481588609519C510.55683225095805 384.2669580327193 520.1704688813079 454.8911361284273 544.2045604571828 450.5649996447699C568.2386520330576 446.2388631611124 577.8522886634074 367.82763939482095 601.8863802392823 359.7161334879632C625.9204718151572 351.60462758110543 635.5341084455071 407.6641461818334 659.5682000213817 411.6297712918527C683.6022915972566 415.5953964018721 705.2329740155438 385.6008501151803 717.2500198034812 378.751134016056" transform="rotate(81, 400, 400)"/><path d="M94.500002118891 420.36401271445527C106.07197213690478 405.9569100420281 126.90151816932962 348.60622663275177 150.0454582053572 351.20991988680487C173.18939824138477 353.81361314085797 182.4469742557958 432.51458123336977 205.59091429182337 432.8617403339101C228.7348543278509 433.20889943445053 237.99243034226197 357.215772326154 261.13637037828954 352.8762835693989C284.2803104143171 348.5367948126437 293.53788642872814 410.6435578993237 316.6818264647558 412.03219430148533C339.8257665007833 413.42083070364697 349.0833425151943 355.54940864356 372.2272825512219 359.5417382997748C395.37122258724946 363.53406795598954 404.6287986016605 426.6823083442908 427.77273863768806 431.19537665131617C450.91667867371564 435.70844495834154 460.1742546881267 377.5592956178223 483.31819472415424 381.2044661734966C506.4621347601818 384.8496367291709 515.7197107745928 452.85810452503796 538.8636508106204 448.692195318553C562.0075908466481 444.5262861120681 571.265166861059 369.01918174452805 594.4091068970866 361.20810198236876C617.5530469331143 353.39702222020946 626.8106229475253 407.38026235424377 649.9545629835528 411.1990124601883C673.0985030195803 415.0177625661329 693.9280490520051 386.1341254011705 705.500019070019 379.5381024909026" transform="rotate(78, 400, 400)"/><path d="M106.25000203739519 419.5807805758922C117.37689628548537 405.72779723701996 137.4053059320477 350.582909343485 159.65909442822806 353.0864605493053C181.9128829244084 355.5900117551256 190.81439832288055 431.2640195363869 213.0681868190609 431.59782636382965C235.32197531524127 431.93163319127234 244.22349071371343 358.86131866406413 266.4772792098938 354.6887333210303C288.73106770607416 350.51614797799647 297.6325831045463 410.2341894074965 319.88637160072665 411.5694167172673C342.14016009690704 412.9046440270381 351.0416754953792 357.25904589233915 373.29546399155953 361.09782440793026C395.54925248773986 364.9366029235214 404.450767886212 425.65606483534947 426.7045563823924 429.9955535921046C448.95834487857275 434.3350423488598 457.8598602770449 378.4223987522067 480.1136487732253 381.92737044035505C502.36743726940557 385.4323421285035 511.26895266787767 450.82509962452946 533.5227411640581 446.819417695217C555.7765296602386 442.81373576590454 564.6780450587106 370.2107507971161 586.931833554891 362.70009717965524C609.1856220510714 355.18944356219436 618.0871374495435 407.09640522953504 640.3409259457238 410.7682803314048C662.5947144419041 414.4401554332746 682.6231240884665 386.6674273900415 693.7500183365566 380.32509766863006" transform="rotate(75, 400, 400)"/><path d="M118.00000195589938 418.79754843732917C128.68182043406597 405.4986844320118 147.9090936947658 352.5595920542183 169.27273065109893 354.96300121180576C190.63636760743208 357.36641036939324 199.18182238996533 430.0134578394041 220.54545934629846 430.3339123937491C241.9090963026316 430.6543669480941 250.4545510851649 360.50686500197423 271.81818804149805 356.5011830726617C293.1818249978312 352.49550114334926 301.7272797803645 409.8248209156693 323.09091673669764 411.10663913304927C344.4545536930308 412.38845735042923 353.00000847556396 358.9686831411182 374.3636454318971 362.6539105160857C395.72728238823026 366.33913789105316 404.27273717076355 424.62982132640815 425.63637412709664 428.7957305328931C447.00001108342985 432.96163973937803 455.54546586596314 379.285501886591 476.90910282229623 382.6502747072135C498.27273977862933 386.015047527836 506.8181945611626 448.7920947240209 528.1818315174958 444.94664007188095C549.5454684738289 441.101185419741 558.0909232563622 371.4023198497041 579.4545602126955 364.1920923769417C600.8181971690285 356.98186490417925 609.3636519515618 406.8125481048263 630.7272889078948 410.3375482026213C652.090925864228 413.8625483004162 671.3181991249278 387.20072937891246 682.0000176030944 381.11209284635754" transform="rotate(72, 400, 400)"/><path d="M129.75000187440358 418.0143162987662C139.98674458264654 405.26957162700364 158.41288145748388 354.53627476495154 178.88636687396982 356.8395418743062C199.35985229045573 359.14280898366087 207.54924645705012 428.76289614242125 228.02273187353603 429.06999842366855C248.49621729002197 429.37710070491585 256.68561145661636 362.1524113398843 277.15909687310227 358.31363282429317C297.6325822895882 354.47485430870205 305.8219764561826 409.41545242384205 326.2954618726685 410.64386154883124C346.7689472891544 411.87227067382037 354.95834145574884 360.6783203898973 375.43182687223475 364.2099966242411C395.90531228872067 367.74167285858493 404.0947064553151 423.6035778174668 424.568191871801 427.59590747368156C445.0416772882869 431.58823712989636 453.2310714548813 380.1486050209754 473.70455687136723 383.37317897407195C494.17804228785315 386.5977529271685 502.36743645444744 446.7590898235124 522.8409218709335 443.07386244854496C543.3144072874195 439.38863507357746 551.5038014540137 372.5938889022921 571.9772868704997 365.6840875742281C592.4507722869857 358.77428624616414 600.64016645358 406.5286909801176 621.113651870066 409.9068160738377C641.5871372865519 413.2849411675579 660.0132741613892 387.7340313677835 670.2500168696322 381.89908802408496" transform="rotate(69, 400, 400)"/><path d="M141.50000179290777 417.23109178959766C151.2916687312271 405.04046645139005 168.91666922020198 356.51296510507933 188.5000030968407 358.7160901662012C208.0833369734794 360.91921522732304 215.91667052413487 427.512342074833 235.5000044007736 427.80609208298256C255.08333827741234 428.09984209113213 262.9166718280678 363.7979653071889 282.5000057047065 360.12609020531914C302.0833395813453 356.4542151034494 309.91667313200077 409.0060915614094 329.50000700863944 410.18109159400774C349.0833408852782 411.35609162660603 356.91667443593366 362.38796526807096 376.5000083125724 365.7660903617911C396.08334218921107 369.1442154555113 403.91667573986655 422.57734193792004 423.5000096165053 426.39609204386454C443.083343493144 430.2148421498091 450.9166770437995 381.01171578475436 470.5000109204382 384.09609087032493C490.0833447970769 387.18046595589556 497.9166783477324 444.7260925523984 517.5000122243712 441.20109245460344C537.0833461010099 437.67609235680845 544.9166796516654 373.7854655842747 564.5000135283041 367.1760904009091C584.0833474049429 360.56671521754356 591.9166809555983 406.2448414848033 611.500014832237 409.47609157444873C631.0833487088757 412.7073416640941 648.7083491978506 388.267340986049 658.5000161361698 382.68609083120697" transform="rotate(66, 400, 400)"/><path d="M153.2499864526229 416.44785583633734C162.59657762101864 404.81134983168465 179.42044172413102 358.4896440011153 198.11362406092252 360.59262701400434C216.806806397714 362.6956100268934 224.28407933243062 426.2617765631529 242.97726166922212 426.54217429820477C261.6704440060136 426.8225720332566 269.1477169407302 365.44350783040176 287.84089927752177 361.9385361422533C306.5340816143132 358.43356445410495 314.0113545490299 408.59671925488493 332.7045368858213 409.71831019509244C351.39771922261286 410.8399011352999 358.8749921573294 364.09759870215277 377.5681744941209 367.3221726552493C396.2613568309124 370.5467466083458 403.73862976562907 421.55109461428145 422.4318121024205 425.1962651699558C441.12499443921206 428.84143572563016 448.60226737392867 381.8748151044415 467.29544971072016 384.8189913224861C485.9886320475116 387.7631675405308 493.46590498222815 442.6930838371926 512.1590873190198 439.3283110165702C530.8522696558114 435.9635381959477 538.3295425905278 374.97703082216543 557.0227249273194 368.6680817834983C575.7159072641109 362.35913274483113 583.1931801988276 405.9609805453973 601.8863625356189 409.04535563096795C620.5795448724105 412.1297307165385 637.4034089755228 388.8006391602227 646.7500001439186 383.4730821942371" transform="rotate(63, 400, 400)"/><path d="M164.99998637112708 415.6646275124716C173.90150176959924 404.5822408413738 189.9242294868491 360.46633052654585 207.72726028379338 362.4691714912021C225.53029108073767 364.4720124558583 232.65150339951538 425.01121868086733 250.45453419645966 425.2782641428215C268.25756499340395 425.54530960477564 275.3787773121817 367.0890579830091 293.181808109126 363.75098970858204C310.98483890607025 360.412921434155 318.106051224848 408.187354577755 335.9090820217923 409.2555364255717C353.7121128187366 410.3237182733883 360.83332513751424 365.8072397656291 378.63635593445855 368.878262578102C396.4393867314028 371.9492853905749 403.56059905018054 420.5248549200374 421.36362984712486 423.99644592544155C439.16666064406917 427.46803693084564 446.28787296284685 382.7379220535231 464.09090375979116 385.5418994040419C481.8939345567354 388.3458767545606 489.0151468755131 440.66008275138137 506.8181776724574 437.4555372079314C524.6212084694017 434.25099166448143 531.7424207881795 376.1686036894507 549.5454515851238 370.160080795482C567.348482382068 364.1515579015133 574.4696947008458 405.67712723538585 592.27272549779 408.61462731688164C610.0757562947342 411.5521273983775 626.098484011984 389.333944963791 634.9999994104562 384.26008118666186" transform="rotate(60, 400, 400)"/><path d="M176.7499862896313 414.88139537390856C185.20642591817983 404.3531280363656 200.42801724956718 362.4430132372791 217.34089650666425 364.3457121537025C234.25377576376133 366.24841107012594 241.01892746660016 423.76065698388453 257.93180672369726 424.014350172741C274.84468598079434 424.2680433615974 281.60983768363315 368.7346043209192 298.5227169407302 365.5634394602135C315.4355961978273 362.3922745995078 322.2007479006661 407.7779860859278 339.1136271577632 408.7927588413536C356.02650641486025 409.8075315967794 362.79165811769906 367.51687701440824 379.70453737479613 370.43434868625747C396.6174166318932 373.3518203581067 403.3825683347321 419.4986114110961 420.2954475918292 422.79662286623C437.2083268489262 426.0946343213639 443.973478551765 383.6010251879075 460.8863578088621 386.26480367090033C477.7992370659592 388.9285821538931 484.564388768798 438.62707785087287 501.4772680258951 435.58275958459535C518.3901472829922 432.5384413183179 525.155298985831 377.3601727420387 542.0681782429281 371.65207599276846C558.9810575000251 365.9439792434982 565.7462092028641 405.3932701106771 582.6590884599611 408.1838951880981C599.5719677170582 410.9745202655191 614.7935590484456 389.86724695266196 623.249998676994 385.04707636438934" transform="rotate(57, 400, 400)"/><path d="M188.49998620813545 414.098155605951C196.5113500667604 404.12400760196294 210.93180501228528 364.41968831861783 226.95453272953515 366.22224518680844C242.977260446785 368.02480205499904 249.38635153368494 422.5100876575072 265.4090792509348 422.75042857326594C281.4318069681847 422.9907694890247 287.8408980550846 370.38014302943475 303.86362577233444 367.3758815824504C319.8863534895843 364.37162013546606 326.2954445764843 407.3686099647061 342.31817229373416 408.329973627741C358.340900010984 409.291337290776 364.74999109788394 369.2265066337928 380.77271881513377 371.9904271650184C396.7954465323836 374.75434769624394 403.20453761928354 418.4723602727602 419.22726533653343 421.5967921776239C435.2499930537833 424.72122408248765 441.65908414068326 384.4641206928974 457.68181185793316 386.98770030836425C473.70453957518293 389.51127992383107 480.11363066208287 436.5940653209698 496.13635837933276 433.7099743318648C512.1590860965827 430.8258833427599 518.5681771834826 378.5517341652322 534.5909049007325 373.14406356066036C550.6136326179824 367.73639295608854 557.0227237048823 405.1094053565738 573.0454514221321 407.75315542992007C589.068179139382 410.3969055032663 603.4886340849068 390.40054131213844 611.4999979435318 385.83406391272223" transform="rotate(54, 400, 400)"/><path d="M200.24998612663967 413.31493872617705C207.81627421534097 403.8949100557439 221.43559277500339 366.39638628814015 236.568168952406 368.0988011080979C251.70074512980867 369.80121592805574 257.7537756007697 421.2595412193134 272.88635177817235 421.4865298619744C288.018927955575 421.7135185046355 294.07195842653607 372.0257046261339 309.2045346039387 369.1883465928709C324.3371107813414 366.3509885596079 330.39014125230244 406.9592567316679 345.52271742970504 407.86721130231206C360.65529360710775 408.7751658729562 366.70832407806876 370.9361591413609 381.8409002554714 373.54652853196285C396.973476432874 376.15689792256484 403.0265069038351 417.44613202260797 418.1590830812378 420.3969843772015C433.2916592586404 423.347836731795 439.34468972960144 385.32723908607085 454.47726590700415 387.71061983401177C469.6098420844067 390.0940005819527 475.66287255536776 434.56107567925034 490.79544873277047 431.83721196731784C505.9280249101731 429.1133482553854 511.9810553811342 379.74331847660926 527.1136315585368 374.63607401673585C542.2462077359395 369.5288295568625 548.2992382069006 404.82556349065413 563.4318143843032 407.32243855992556C578.5643905617057 409.81931362919704 592.1837091213681 390.9338585597985 599.7499972100695 386.62107434923877" transform="rotate(51, 400, 400)"/><path d="M211.99998604514386 412.5317008655681C219.12119836392156 403.66579152868985 231.93938053772146 368.37306327682745 246.1818051752769 369.9753360485525C260.4242298128323 371.5776088202775 266.1211996678545 420.0089738002847 280.3636243054099 420.22261016984805C294.60604894296534 420.43624653941134 300.30301879798753 373.6712452419981 314.54544343554295 371.00079062245646C328.78786807309837 368.3303360029148 334.48483792812056 406.5498825177948 348.727262565676 407.4044279960481C362.96968720323144 408.25897347430146 368.6666570582536 372.6457906680941 382.90908169580905 375.1026089180724C397.1515063333644 377.5594271680507 402.8484761883866 416.41988279162075 417.0909008259421 419.197155595944C431.3333254634975 421.97442840026736 437.0302953185197 386.19033649840935 451.2727199560751 388.4335183788243C465.5151445936305 390.6767002592393 471.21211444865264 432.52806505669594 485.4545390862081 429.96442862193595C499.6969637237636 427.40079218717597 505.3939335787857 380.9348818071514 519.6363582163413 376.12806349197643C533.8787828538966 371.3212451768014 539.5757527089188 404.5417006438995 553.8181773464742 406.89170070909614C568.0606019840296 409.2417007742928 580.8787841578294 391.4671548266236 587.9999964766073 387.4080638049203" transform="rotate(48, 400, 400)"/><path d="M223.74998596364804 411.7484763563996C230.42612251250216 403.43668635307625 242.44316830043957 370.34975361695524 255.79544139814777 371.85188434044744C269.147714495856 373.35401506393964 274.48862373493927 418.75841973269644 287.8408968326475 418.958703829162C301.1931699303557 419.1589879256276 306.534079169439 375.31679920930276 319.88635226714723 372.81324800348244C333.2386253648554 370.3096967976621 338.5795346039387 406.14052165536214 351.9318077016469 406.9416580412246C365.28408079935514 407.7427944270871 370.62499003843845 374.35543554626776 383.97726313614663 376.6587026556224C397.32953623385487 378.9619697649771 402.6704454729381 415.39364691207396 416.02271857064636 417.99734016612706C429.3749916683546 420.60103342018016 434.7159009074379 387.05344726218823 448.06817400514603 389.1564302750773C461.42044710285427 391.2594132879663 466.7613563419376 430.4950677855819 480.1136294396458 428.09165862799443C493.46590253735405 425.68824947040696 498.8068117764373 382.12645848913394 512.1590848741455 377.6200663186574C525.5113579718538 373.11367414818085 530.852267210937 404.2578511485853 544.2045403086452 406.46097620970716C557.5568134063535 408.664101270829 569.5738591942909 392.00046444488913 576.249995743145 388.1950666120423" transform="rotate(45, 400, 400)"/><path d="M235.49998588215226 410.9652346810934C241.73104666108276 403.2075640113249 252.94695606315764 372.32642679094533 265.40907762101864 373.72841546620475C277.87119917887964 375.13040414146406 282.856047802024 417.5078484989704 295.318169359885 417.6947803223383C307.780290917746 417.8817121457063 312.76513954089046 376.96233601046964 325.22726109875146 374.6256882183707C337.68938265661245 372.28904042627175 342.6742312797569 405.7311436267918 355.1363528376179 406.47887092026343C367.5984743954789 407.2265982137351 372.5833230186232 376.06506325830367 385.0454445764843 378.2147792270347C397.50756613434527 380.3644951957657 402.49241475748966 414.3673938663895 414.95453631535065 416.79750757017234C427.41665787321165 419.22762127395526 432.4015064963561 387.91654085982947 444.8636280542171 389.8793250051926C457.325749612078 391.8421091505557 462.3105982352224 428.46205334833024 474.77271979308347 426.2188714679153C487.2348413509445 423.97568958750026 492.2196899740889 383.31801800497874 504.6818115319499 379.11205197920066C517.143933089811 374.9060859534226 522.1287817129553 403.9739844871334 534.5909032708163 406.0302345441804C547.0530248286773 408.08648460122754 558.2689342307522 392.533756897017 564.4999950096826 388.9820522530266" transform="rotate(42, 400, 400)"/><path d="M247.24998580065642 410.18200635722764C253.03597080966333 402.97845502101404 263.45074382587575 374.30311331637586 275.0227138438895 375.60495994340243C286.5946838619033 376.906806570429 291.22347186910883 416.2572906166849 302.7954418871226 416.43087016695506C314.3674119051364 416.6044497172253 318.9961999123419 378.607886163077 330.5681699303557 376.43814178469944C342.1401399483695 374.2683974063218 346.768927955575 405.32177894966185 358.3408979735888 406.01609715074267C369.9128679916026 406.7104153518235 374.5416559988081 377.77470432178 386.11362601682185 379.7708691498874C397.68559603483567 381.7670339779948 402.3143840420412 413.34115417214537 413.88635406005494 415.59768832565805C425.45832407806876 417.85422247917074 430.08711208527427 388.77964780891114 441.65908210328803 390.6022330867483C453.23105212130184 392.42481836458546 457.85984012850736 426.429052262519 469.4318101465211 424.3460976592765C481.003780164535 422.26314305603404 485.63256817174044 384.509590872264 497.20453818975426 380.6040509911844C508.7765082077681 376.69851111010473 513.4052962149735 403.6901311771219 524.9772662329874 405.59950623009416C536.549236251001 407.50888128306644 546.9640092672134 393.0670627005852 552.7499942762204 389.7690512454513" transform="rotate(39, 400, 400)"/><path d="M258.99998571916063 409.3987799407105C264.3408949582439 402.7493479380518 273.95453158859385 376.279801749155 284.63635006676043 377.48150632794875C295.31816854492695 378.6832109067425 299.5908959361936 415.0067346417479 310.27271441436017 415.16696191892044C320.95453289252674 415.32718919609295 325.2272602837934 380.253438223033 335.90907876195996 378.2505972583768C346.59089724012654 376.24775629372056 350.8636246313932 404.91241617988055 361.54544310955976 405.55332528857053C372.22726158772633 406.1942343972605 376.4999889789929 379.484347292605 387.1818074571595 381.32696098008876C397.86362593532607 383.1695746675725 402.1363533265927 412.31491638524994 412.81817180475923 414.39787098849246C423.49999028292586 416.4808255917349 427.7727176741925 389.64275666534144 438.4545361523591 391.32514307565265C449.1363546305256 393.0075294859639 453.40908202179224 424.39605308405635 464.0909004999588 422.47332575798634C474.7727189781254 420.5505984319164 479.04544636939204 385.70116564689795 489.7272648475587 382.09605191051674C500.4090833257252 378.4909381741355 504.68181071699183 403.40627977445905 515.3636291951584 405.16877982335654C526.0454476733249 406.93127987225404 535.6590843036748 393.6003704115021 540.9999935427581 390.55605214522467" transform="rotate(36, 400, 400)"/><path d="M270.74998563766485 408.61554589479886C275.6458191068245 402.52023322569505 284.45831935131196 378.25648255253964 294.2499862896313 379.3580450831006C304.04165322795063 380.45960761366155 307.95832000327835 413.7561710374165 317.74998694159774 413.9030460414913C327.54165387991713 414.04992104556607 331.45832065524485 381.89898265359443 341.2499875935642 380.0630451026596C351.0416545318836 378.2271075517247 354.95832130721135 404.5030457807047 364.74998824553063 405.09054579700387C374.54165518385 405.678045813303 378.45832195917774 381.1939826340355 388.24998889749713 382.8830451808956C398.04165583581647 384.5721077277556 401.95832261114424 411.28867096896 411.7499895494636 413.19804602193227C421.5416564877829 415.10742107490455 425.4583232631107 390.50585789237715 435.24999020143 392.04804543516246C445.0416571397494 393.5902329779478 448.95832391507713 422.3630462761992 458.7499908533965 420.6005462273017C468.54165779171586 418.8380461784042 472.45832456704363 386.89273279213734 482.24999150536297 383.58804520045453C492.04165844368237 380.2833576087718 495.9583252190101 403.1224207424017 505.7499921573294 404.73804578722434C515.5416590956488 406.35367083204704 524.3541593401362 394.1336704930245 529.2499928092959 391.34304541560346" transform="rotate(33, 400, 400)"/><path d="M282.50000081495807 407.83231566358444C286.95075851419415 402.2911223280355 294.96212237281907 380.2331671706215 303.8636377712912 381.23458765294964C312.7651531697634 382.23600813527776 316.3257593291522 412.5056112477823 325.2272747276244 412.6391339787594C334.12879012609653 412.77265670973645 337.6893962854854 383.54453089885317 346.59091168395753 381.8754967616397C355.4924270824297 380.20646262442614 359.0530332418185 404.09367919622616 367.9545486402907 404.62777012013447C376.85606403876284 405.1618610440428 380.4166701981517 382.9036217901632 389.31818559662383 384.43913319639967C398.21970099509593 385.9746446026361 401.78030715448483 410.2624293673673 410.681822552957 411.9982248700694C419.58333795142914 413.73402037277145 423.143944110818 391.3689629341102 432.04545950929014 392.77095160936955C440.94697490776224 394.1729402846289 444.5075810671511 420.33004328303934 453.40909646562324 418.72777051131436C462.3106118640954 417.1254977395894 465.8712180234843 388.084303752074 474.77273342195645 385.08004230508965C483.67424882042855 382.0757808581053 487.23485497981744 402.83856552504153 496.13637037828954 404.30731556578945C505.03788577676164 405.7760656065374 513.0492496353866 394.6669743892441 517.5000073346226 392.13004250067956" transform="rotate(30, 400, 400)"/><path d="M294.2500007334623 407.0490835250214C298.25568266277475 402.06200952302737 305.4659101355372 382.2098498813548 313.4772739941621 383.1111283154501C321.48863785278706 384.0124067495454 324.69318339623703 411.25504955079947 332.70454725486195 411.37522000867887C340.71591111348687 411.4953904665582 343.92045665693684 385.1900772367633 351.93182051556175 383.6879465132711C359.94318437418667 382.1858157897789 363.14772991763664 403.6843107043989 371.1590937762616 404.16499253591644C379.17045763488653 404.6456743674339 382.3750031783365 384.61325903894226 390.3863670369614 385.99521930455506C398.39773089558634 387.37717957016787 401.6022764390363 409.236185858426 409.6136402976613 410.79840181085785C417.6250041562862 412.3606177632897 420.82954969973616 392.2320660684946 428.8409135583611 393.493855876228C436.852277416986 394.75564568396146 440.05682296043597 418.2970383825308 448.0681868190609 416.8549928879783C456.07955067768586 415.41294739342584 459.2840962211358 389.275872804662 467.2954600797608 386.5720375023761C475.3068239383857 383.86820220009014 478.5113694818357 402.5547084003328 486.5227333404606 403.87658343700593C494.5340971990855 405.198458473679 501.74432467184795 395.2002763781151 505.7500066011604 392.91703767840704" transform="rotate(27, 400, 400)"/><path d="M306.00000065196645 406.265850432784C309.56060681135534 401.8328957643449 315.9696978982553 384.1865316384137 323.09091021703296 384.9876680242762C330.2121225358107 385.7888044101387 333.0606074633218 410.00448690014235 340.1818197820995 410.111305084924C347.3030321008772 410.2181232697057 350.1515170283883 386.83562262099906 357.272729347166 385.5003953112282C364.3939416659437 384.1651680014574 367.2424265934548 403.2749412588974 374.36363891223255 403.7022139980241C381.4848512310102 404.1294867371507 384.3333361585213 386.3228953340471 391.45454847729906 387.5513044590362C398.57576079607674 388.7797135840254 401.42424572358783 408.20994139581035 408.54545804236557 409.59857779797204C415.66667036114325 410.9872142001337 418.51515528865434 393.0951682492047 425.6363676074321 394.21675918941213C432.7575799262098 395.33835012961964 435.60606485372085 416.26403252834797 442.7272771724986 414.98221431096795C449.8484894912763 413.700396093588 452.69697441878736 390.46744090357566 459.81818673756516 388.0640317459882C466.93939905634284 385.6606225884007 469.78788398385393 402.27085032194975 476.9090963026316 403.4458503545481C484.03030862140935 404.6208503871464 490.4393997083092 395.7335774133118 494.0000058676982 393.70403190246014" transform="rotate(24, 400, 400)"/><path d="M317.75000057047066 405.482621155244C320.8655309599359 401.60378582035975 326.4734856609733 386.16321721016993 332.7045464399039 386.86421154779964C338.9356072188343 387.5652058854293 341.42803153040654 408.7539280641825 347.65909230933704 408.84739397586645C353.89015308826754 408.9408598875504 356.38257739983976 388.4811718199321 362.61363817877026 387.3128479238826C368.84469895770076 386.14452402783314 371.337123269273 402.86557562809315 377.5681840482035 403.239439274829C383.799244827134 403.6133029215648 386.29166913870614 388.0325354438491 392.52272991763664 389.1073934282146C398.7537906965672 390.1822514125801 401.24621500813936 407.183700747892 407.47727578706986 408.39875759978344C413.70833656600036 409.6138144516749 416.2007608775726 393.958274244612 422.4318216565031 394.9396663172936C428.6628824354335 395.9210583899751 431.15530674700574 414.23103048886236 437.3863675259363 413.1094395486549C443.6174283048668 411.9878486084474 446.10985261643896 391.65901281718664 452.3409133953695 389.5560298042976C458.5719741743 387.45304679140855 461.0643984858722 401.98699605826397 467.2954592648027 403.0151210867875C473.52652004373317 404.04324611531104 479.1344747447706 396.26688226320573 482.25000513423583 394.49102994121057" transform="rotate(21, 400, 400)"/><path d="M329.5000004889748 404.6993890166809C332.1704551085165 401.37467301535156 336.97727342369143 388.1398999209032 342.31818266277475 388.74075221030006C347.659091901858 389.3416044996969 349.79545559749135 407.50336636719965 355.1363648365746 407.58348000578593C360.4772740756579 407.66359364437216 362.6136377712912 390.12671815784216 367.95454701037454 389.12529767551405C373.2954562494578 388.12387719318593 375.4318199450911 402.45620713626596 380.7727291841744 402.7766616906109C386.1136384232577 403.09711624495594 388.25000211889096 389.7421726926282 393.5909113579743 390.66347953637006C398.9318205970576 391.58478638011195 401.0681842926909 406.15745723895066 406.40909353177415 407.1989345405719C411.75000277085746 408.24041184219317 413.8863664664908 394.8213773789964 419.2272757055741 395.66257058415204C424.56818494465733 396.50376378930764 426.7045486402907 412.19802558835386 432.04545787937394 411.23666192531886C437.3863671184572 410.27529826228385 439.52273081409055 392.85058186977466 444.86364005317387 391.04802500158405C450.2045492922571 389.24546813339344 452.3409129878904 401.70313893355524 457.68182222697374 402.58438895800396C463.022731466057 403.4656389824527 467.82954978123195 396.80018425207675 470.5000044007736 395.278025118938" transform="rotate(18, 400, 400)"/><path d="M341.24999659278177 403.9161530634206C343.4753754423998 401.14555639564617 347.48105737171227 390.1165788169392 351.93181507094835 390.61728905810327C356.3825727701844 391.1179992992673 358.16287584987884 406.2528008555196 362.6136335491149 406.31956222100814C367.064391248351 406.38632358649664 368.8446943280454 391.772260681055 373.2954520272815 390.93774361244823C377.7462097265176 390.10322654384146 379.526512806212 402.0468348297415 383.9772705054481 402.3138802916956C388.42802820468415 402.5809257536498 390.2083312843786 391.45180612671004 394.65908898361465 392.21956182982825C399.10984668285073 392.98731753294646 400.89014976254515 405.13120991531207 405.3409074617812 405.9991076666631C409.7916651610173 406.8670054180142 411.5719682407117 395.6844766986835 416.0227259399478 396.3854710363132C420.4734836391839 397.0864653739429 422.25378671887825 410.1650168731481 426.7045444181143 409.3638804872856C431.1553021173504 408.5627441014231 432.9356051970449 394.0421471076654 437.38636289628096 392.5400163841732C441.83712059551704 391.03788566068107 443.61742367521146 401.4192779941492 448.0681813744475 402.1536530145232C452.51893907368355 402.8880280348971 456.524621002996 397.3334824262505 458.74999985261405 396.0650164819682" transform="rotate(15, 400, 400)"/><path d="M352.999996511286 403.13292855425215C354.7802995909804 400.91645122003257 357.9848451344304 392.09326915706697 361.5454512938192 392.4938373499982C365.1060574532081 392.89440554292946 366.5302999169636 405.0022467879313 370.0909060763525 405.0556558803221C373.65151223574134 405.10906497271293 375.0757546994969 393.41781464835964 378.6363608588857 392.7502009934742C382.19696701827456 392.08258733858884 383.62120948203017 401.63747396730884 387.181815641419 401.8511103368721C390.74242180080785 402.06474670643547 392.1666642645634 393.16145100488365 395.7272704239523 393.77565556737824C399.28787658334113 394.3898601298728 400.7121190470966 404.1049740357653 404.2727252064855 404.7992922368461C407.83333136587436 405.4936104379269 409.2575738296299 396.54758746246245 412.81817998901874 397.1083829325662C416.37878614840764 397.6691784026699 417.8030286121632 408.13201960203406 421.36363477155203 407.4911104933441C424.92424093094087 406.8502013846541 426.3484833946964 395.23372378964797 429.9090895540853 394.03201921085423C433.46969571347415 392.8303146320605 434.8939381772297 401.135428498835 438.45454433661854 401.72292851513413C442.01515049600744 402.31042853143333 445.21969603945735 397.866792044516 446.9999991191518 396.8520192890902" transform="rotate(12, 400, 400)"/><path d="M364.74999642979014 402.3496954620148C366.085223739561 400.6873374613501 368.4886328971485 394.0699509141259 371.1590875166901 394.3703770588244C373.82954213623174 394.6708032035228 374.8977239840484 403.75168413727414 377.56817860359 403.79174095656725C380.23863322313167 403.83179777586037 381.30681507094835 395.0633600325954 383.97726969049 394.56264979143134C386.64772431003166 394.0619395502673 387.7159061578483 401.22810452180727 390.38636077738994 401.3883317989798C393.0568153969316 401.5485590761523 394.1249972447482 394.8710872999884 396.7954518642899 395.3317407218593C399.46590648383153 395.7923941437303 400.53408833164815 403.07872957314964 403.2045429511898 403.5994682239603C405.87499757073147 404.1202068747709 406.94317941854814 397.41068964317253 409.6136340380898 397.83128624575033C412.2840886576314 398.25188284832814 413.3522705054481 406.09901374785125 416.02272512498973 405.6183319163338C418.69317974453134 405.13765008481624 419.761361592348 396.4252918885617 422.43181621188967 395.52401345446634C425.10227083143127 394.622735020371 426.17045267924794 400.85157042045194 428.8409072987896 401.2921954326763C431.5113619183312 401.73282044490065 433.9147710759187 398.4000930797127 435.24999838568954 397.6390135131433" transform="rotate(9, 400, 400)"/><path d="M376.5000001629916 401.5664633234517C377.3901517028388 400.45822465634194 378.9924244745638 396.04663362485917 380.77272755425827 396.2469177213248C382.5530306339527 396.4472018177904 383.26515186583043 402.50112244029134 385.04545494552485 402.52782698648673C386.82575802521933 402.5545315326822 387.5378792570971 396.7089063705055 389.3181823367915 396.3750995430628C391.0984854164859 396.0412927156201 391.8106066483637 400.8187360299801 393.59090972805814 400.92555421476175C395.37121280775256 401.0323723995434 396.08333403963036 396.5807245487675 397.8636371193248 396.8878268300148C399.6439401990192 397.19492911126207 400.35606143089694 402.0524860642083 402.1363645105914 402.39964516474873C403.9166675902858 402.74680426528914 404.6287888221636 398.2737927775569 406.409091901858 398.5541905126088C408.1893949815525 398.83458824766063 408.9015162134302 404.06600884734274 410.68181929312465 403.7455542929977C412.46212237281907 403.42509973865276 413.1742436046968 397.61686094114964 414.9545466843913 397.01600865175277C416.7348497640857 396.4151563623559 417.4469709959635 400.56771329574315 419.2272740756579 400.8614633038928C421.00757715535235 401.15521331204235 422.60984992707733 398.9333950685837 423.5000014669246 398.4260086908708" transform="rotate(6, 400, 400)"/><path d="M388.25000008149584 400.78323213856305C388.6950758514194 400.2291128050081 389.4962122372819 398.02331728926674 390.38636377712913 398.1234593374995C391.2765153169763 398.22360138573237 391.6325759329152 401.2505616969828 392.5227274727624 401.2639139700805C393.41287901260966 401.27726624317825 393.76893962854854 398.3544536620899 394.6590911683958 398.18755024836855C395.54924270824296 398.0206468346472 395.9053033241819 400.4093684918272 396.79545486402907 400.46277758421803C397.68560640387625 400.51618667660887 398.0416670198152 398.2903627512209 398.93181855966236 398.44391389184455C399.8219700995096 398.5974650324682 400.1780307154485 401.0262435089413 401.0681822552957 401.19982305921155C401.9583337951429 401.37340260948173 402.3143944110818 399.1368968656156 403.204545950929 399.27709573314155C404.09469749077624 399.4172946006675 404.4507581067151 402.0330049005085 405.3409096465623 401.872777623336C406.23106118640953 401.71255034616354 406.5871218023484 398.808430947412 407.47727334219564 398.5080048027136C408.3674248820429 398.2075786580151 408.72348549798176 400.28385712470873 409.61363703782894 400.4307321287835C410.5037885776762 400.5776071328583 411.30492496353867 399.466698011129 411.7500007334623 399.2130048222725" transform="rotate(3, 400, 400)"/></g></svg>